# Blender 5.0.1
# www.blender.org
mtllib casaMedieval.mtl
o Cube.002
v 0.353522 -2.014271 -2.470142
v 1.096266 -2.014271 -2.470142
v 1.096266 -2.014271 -1.629309
v 0.353522 -2.014271 -1.629309
v -0.863331 0.723263 -2.470142
v -1.583485 0.723263 -2.470142
v -1.583485 1.907146 -2.470142
v -0.863330 2.930722 -2.470142
v 0.353522 -2.014271 -3.038702
v 0.353523 -0.059644 -3.038702
v 1.096266 -0.059644 -3.038702
v 1.096266 -2.014271 -3.038702
v 1.096267 0.723263 -2.470142
v 1.096266 0.723263 -1.629309
v -0.863331 -2.014270 -1.629309
v -0.863331 0.723263 -1.629309
v -1.583485 0.723263 -1.629309
v -1.583486 -2.014270 -1.629309
v -1.583486 -2.014270 -2.470142
v 0.353523 0.723263 -2.470142
v -1.583485 -0.059644 -3.038702
v -1.583485 -2.014270 -3.038702
v 0.353523 2.930722 -2.470142
v 0.353523 2.930722 -1.629309
v 1.096266 1.907146 -1.629309
v 1.096267 1.907146 -2.470142
v 0.353522 0.723263 -1.629309
v -1.583485 1.907146 -1.629309
v -0.863331 -2.014270 -2.470142
v -0.863331 -2.014270 -3.038702
v -0.863331 -0.059644 -3.038702
v -0.863330 7.198044 -2.470142
v 0.353524 7.198044 -2.470142
v -0.863331 2.930722 -1.629309
v -0.863330 7.198044 -1.629309
v 0.353523 7.198044 -1.629309
v 0.600838 7.399009 -2.653243
v 0.600838 7.399009 -1.446207
v -1.110645 7.399009 -1.446208
v -1.110644 7.399009 -2.653244
v -1.110644 8.446980 -2.653244
v 0.600838 8.446980 -2.653243
v -1.110645 8.446980 -1.446208
v 0.600838 8.446980 -1.446207
vn -0.0000 -1.0000 -0.0000
vn -0.0000 -0.0000 -1.0000
vn 1.0000 -0.0000 -0.0000
vn -0.0000 -0.0000 1.0000
vn -1.0000 -0.0000 -0.0000
vn -0.0000 0.5876 -0.8091
vn 0.8094 0.5873 -0.0000
vn -0.8179 0.5754 -0.0000
vn 0.6306 -0.7761 -0.0000
vn -0.6306 -0.7761 -0.0000
vn -0.0000 -0.6735 0.7392
vn -0.0000 -0.6735 -0.7392
vn -0.0000 1.0000 -0.0000
vt 0.895591 0.725310
vt 0.877475 0.725310
vt 0.877475 0.704801
vt 0.895591 0.704801
vt 0.180776 0.269555
vt 0.247194 0.269555
vt 0.247193 0.378740
vt 0.180776 0.473141
vt 0.068550 0.000050
vt 0.068550 0.180318
vt 0.000050 0.180318
vt 0.000050 0.000050
vt 0.820384 0.001304
vt 0.820059 0.251084
vt 0.743339 0.250984
vt 0.743664 0.001204
vt 0.344119 0.000050
vt 0.344119 0.256900
vt 0.276550 0.256900
vt 0.276550 0.000050
vt 0.610234 0.250748
vt 0.610233 0.000038
vt 0.687239 0.000038
vt 0.687239 0.250748
vt 0.895591 0.739178
vt 0.877475 0.739178
vt 0.068550 0.269554
vt 0.000050 0.269554
vt 0.872261 0.001371
vt 0.872028 0.179717
vt 0.558163 0.179047
vt 0.558163 0.000038
vt 0.819766 0.474493
vt 0.743048 0.474393
vt 0.743198 0.359004
vt 0.819917 0.359104
vt 0.458290 0.256900
vt 0.527978 0.256900
vt 0.527978 0.367977
vt 0.458290 0.464014
vt 0.687238 0.359170
vt 0.610234 0.359169
vt 0.925272 0.725310
vt 0.925272 0.704801
vt 0.068550 0.473140
vt 0.000050 0.378739
vt 0.180776 0.000050
vt 0.180777 0.180318
vt 0.527979 0.000050
vt 0.458290 0.000050
vt 0.925272 0.739178
vt 0.180772 0.866698
vt 0.068547 0.866697
vt 0.344120 0.464014
vt 0.247194 0.000050
vt 0.247194 0.180318
vt 0.942837 0.739178
vt 0.942837 0.725310
vt 0.942837 0.704801
vt 0.687237 0.473786
vt 0.610234 0.473785
vt 0.276551 0.367978
vt 0.687233 0.864584
vt 0.610230 0.864583
vt 0.819256 0.863840
vt 0.742540 0.863739
vt 0.458291 0.864390
vt 0.344122 0.864390
vt 0.835909 0.903121
vt 0.725784 0.902976
vt 0.703999 0.903991
vt 0.593462 0.903988
vt 0.481495 0.901626
vt 0.320919 0.901627
vt 0.203580 0.903301
vt 0.045738 0.903299
vt 0.203578 0.999950
vt 0.045736 0.999948
vt 0.834699 0.782983
vt 0.834699 0.675751
vt 0.986745 0.675751
vt 0.986745 0.782983
vt 0.481495 0.999949
vt 0.320920 0.999950
vt 0.703997 0.999962
vt 0.593459 0.999959
vt 0.835783 0.998734
vt 0.725658 0.998588
s 0
usemtl Material.002
f 1/1/1 2/2/1 3/3/1 4/4/1
f 5/5/2 6/6/2 7/7/2 8/8/2
f 9/9/2 10/10/2 11/11/2 12/12/2
f 2/13/3 13/14/3 14/15/3 3/16/3
f 15/17/4 16/18/4 17/19/4 18/20/4
f 6/21/5 19/22/5 18/23/5 17/24/5
f 2/2/1 1/1/1 9/25/1 12/26/1
f 10/10/6 20/27/6 13/28/6 11/11/6
f 12/29/3 11/30/3 13/14/3 2/13/3
f 21/31/5 22/32/5 19/22/5 6/21/5
f 23/33/7 24/34/7 25/35/7 26/36/7
f 14/15/3 13/14/3 26/36/3 25/35/3
f 27/37/4 14/38/4 25/39/4 24/40/4
f 6/21/5 17/24/5 28/41/5 7/42/5
f 29/43/1 1/1/1 4/4/1 15/44/1
f 13/28/2 20/27/2 23/45/2 26/46/2
f 30/47/2 31/48/2 10/10/2 9/9/2
f 3/49/4 14/38/4 27/37/4 4/50/4
f 1/1/1 29/43/1 30/51/1 9/25/1
f 31/48/6 5/5/6 20/27/6 10/10/6
f 23/45/2 8/8/2 32/52/2 33/53/2
f 16/18/4 27/37/4 24/40/4 34/54/4
f 20/27/2 5/5/2 8/8/2 23/45/2
f 22/55/2 21/56/2 31/48/2 30/47/2
f 22/57/1 30/51/1 29/43/1 19/58/1
f 4/50/4 27/37/4 16/18/4 15/17/4
f 19/58/1 29/43/1 15/44/1 18/59/1
f 7/42/8 28/41/8 34/60/8 8/61/8
f 21/56/6 6/6/6 5/5/6 31/48/6
f 17/19/4 16/18/4 34/54/4 28/62/4
f 8/61/5 34/60/5 35/63/5 32/64/5
f 24/34/3 23/33/3 33/65/3 36/66/3
f 34/54/4 24/40/4 36/67/4 35/68/4
f 36/66/9 33/65/9 37/69/9 38/70/9
f 32/64/10 35/63/10 39/71/10 40/72/10
f 35/68/11 36/67/11 38/73/11 39/74/11
f 33/53/12 32/52/12 40/75/12 37/76/12
f 37/76/2 40/75/2 41/77/2 42/78/2
f 41/79/13 43/80/13 44/81/13 42/82/13
f 39/74/4 38/73/4 44/83/4 43/84/4
f 40/72/5 39/71/5 43/85/5 41/86/5
f 38/70/3 37/69/3 42/87/3 44/88/3
o Cube
v 1.754495 -2.026541 -1.630608
v 1.754495 -2.026541 1.649840
v -2.459387 -2.026541 1.649840
v -2.459386 -2.026541 -1.630608
v 1.754496 3.487383 -1.630607
v 1.754494 3.487383 1.649841
v -2.459388 3.487383 1.649840
v -2.459387 3.487383 -1.630608
v 1.754495 0.730421 -1.630607
v 1.754494 0.730421 1.649841
v 6.462893 -2.026541 0.009617
v 6.462893 2.569549 0.009617
v -2.459387 0.730421 0.009616
v 1.754495 2.569549 0.009617
v 1.754496 3.220158 -1.630607
v 1.754494 3.220158 1.649841
v -2.459387 5.326511 0.009616
v 1.754495 5.326511 0.009617
v -2.459387 -2.026541 0.009616
v 1.754495 -2.026541 0.009616
v -2.459387 4.881025 0.009616
v 1.754495 5.059286 0.009617
v 6.462893 0.730421 1.649841
v 6.462893 0.730421 -1.630607
v 6.462893 -2.026541 1.649841
v 6.462893 0.529279 -1.630607
v 6.462893 0.529279 1.649841
v 1.754494 0.529279 1.649841
v 1.754495 0.529279 -1.630607
v 6.462893 2.234229 0.009617
v 6.462893 -2.026541 -1.630607
v 1.754494 3.334682 1.962635
v -2.459388 3.334682 1.962633
v 1.754494 0.577720 1.962634
v 1.754494 3.067457 1.962635
v -2.459388 3.067457 1.962633
v 6.462893 0.577720 1.962635
v 6.462893 0.376578 1.962635
v 1.754494 0.376578 1.962634
v 1.754496 3.351714 -1.914493
v -2.459387 3.351714 -1.914494
v 1.754495 0.594752 -1.914494
v 1.754496 3.084490 -1.914493
v -2.459387 3.084490 -1.914494
v 6.462893 0.594752 -1.914493
v 6.462893 0.393610 -1.914493
v 1.754495 0.393610 -1.914494
v 6.733890 2.569549 0.009617
v 6.733890 0.730421 1.649841
v 6.733890 0.730421 -1.630607
v 6.733890 0.529279 -1.630607
v 6.733890 0.529279 1.649841
v 6.733890 2.234229 0.009617
v 6.733890 0.577720 1.962635
v 6.733890 0.376578 1.962635
v 6.733890 0.594752 -1.914493
v 6.733890 0.393610 -1.914493
v 2.025493 3.487383 -1.630607
v 2.025491 3.487383 1.649841
v 2.025493 3.220158 -1.630607
v 2.025491 3.220158 1.649841
v 2.025492 5.326511 0.009617
v 2.025492 5.059286 0.009617
v 2.025491 3.334682 1.962635
v 2.025491 3.067457 1.962635
v 2.025493 3.351714 -1.914493
v 2.025493 3.084490 -1.914493
v -2.700274 3.487383 1.649840
v -2.700274 3.487383 -1.630608
v -2.700274 3.220158 1.649840
v -2.700274 3.220158 -1.630608
v -2.700274 5.326511 0.009616
v -2.700274 4.881025 0.009616
v -2.700274 3.334682 1.962633
v -2.700274 3.067457 1.962633
v -2.700274 3.351714 -1.914494
v -2.700274 3.084490 -1.914494
v -2.459387 -2.026541 -0.810496
v -2.459387 4.226800 -0.810496
v -2.459387 0.730421 -0.810496
v 6.462893 -2.026541 -0.810495
v 1.754495 1.469838 -0.810495
v 6.462893 1.469838 -0.810495
v 1.754495 -2.026541 -0.810496
v 1.754495 4.226800 -0.810495
v 6.462893 1.381754 -0.810495
v 1.754495 4.139722 -0.810495
v -2.459387 4.050591 -0.810496
v 6.733890 1.469838 -0.810495
v 6.733890 1.201607 -0.810495
v 2.025492 4.226800 -0.810495
v 2.025492 3.959575 -0.810495
v -2.700274 4.226800 -0.810496
v -2.700274 3.870444 -0.810496
v 1.754495 -2.026541 0.829728
v 1.754494 4.226800 0.829729
v 1.754495 1.469838 0.829729
v -2.459387 0.730421 0.829728
v -2.459388 4.226800 0.829728
v -2.459387 -2.026541 0.829728
v 1.754494 4.139722 0.829729
v 6.462893 1.469838 0.829729
v 6.462893 -2.026541 0.829729
v 6.462893 1.381754 0.829729
v -2.459388 4.050591 0.829728
v 6.733890 1.469838 0.829729
v 6.733890 1.201607 0.829729
v 2.025491 4.226800 0.829729
v 2.025491 3.959575 0.829729
v -2.700274 4.226800 0.829728
v -2.700274 3.870444 0.829728
v 1.754495 -1.719939 -1.630608
v 6.462893 -1.711214 0.009617
v -2.459387 -1.719939 0.009616
v 6.462893 -1.719939 -1.630607
v -2.459387 -1.719939 -0.810496
v 6.462893 -1.704626 -0.810495
v 6.462893 -1.705022 0.829729
v -2.459387 -1.719939 0.829728
v 1.754495 2.813236 0.009617
v -2.459387 3.220158 -1.630608
v -2.459387 2.797054 -0.810496
v 1.754495 2.802405 -0.810495
v 1.754495 2.817439 0.829729
v -2.459387 2.796487 0.829728
v 1.484283 3.334682 1.962634
v 1.484285 3.351714 -1.914493
v 1.484283 3.487383 1.649841
v 1.484284 -2.026541 1.649840
v -2.009907 2.815246 1.649840
v -2.009906 2.815246 -1.630608
v -2.009907 -1.719939 1.649840
v -2.009906 -1.719939 -1.630608
v -2.009907 3.220158 -1.630608
v -2.009906 -2.026541 0.009616
v -2.009907 5.326511 0.009616
v -2.009907 3.220158 1.649840
v -2.009906 0.730421 -1.630608
v -2.009907 0.730421 1.649840
v -2.009907 3.084490 -1.914494
v -2.009907 3.351714 -1.914494
v -2.009907 3.067457 1.962633
v -2.009907 3.334682 1.962633
v 1.484284 -2.026541 -1.630608
v 1.484285 3.487383 -1.630607
v 1.484284 -2.026541 -0.810496
v 1.484284 -2.026541 0.829728
v -2.009907 3.487383 1.649840
v -2.009907 3.487383 -1.630608
v -2.009907 -2.026541 1.649840
v -2.009906 -2.026541 -1.630608
v -2.009907 4.226800 0.829728
v -2.009907 -2.026541 0.829728
v -2.009906 -2.026541 -0.810496
v -2.009907 4.226800 -0.810496
v 1.484285 2.815246 -1.630607
v 1.484284 -1.719939 -1.630608
v 1.484284 -1.719939 1.649840
v 1.484284 2.815246 1.649841
v 1.484284 4.226800 0.829729
v 1.484285 4.226800 -0.810495
v 1.484284 5.326511 0.009617
v 1.484283 3.067457 1.962634
v 1.484285 3.084490 -1.914493
v 1.484283 3.220158 1.649841
v 1.484284 0.730421 1.649841
v 1.484285 0.730421 -1.630607
v 1.484284 -2.026541 0.009616
v 1.484285 3.220158 -1.630607
v 2.036051 2.569549 0.009617
v 2.036051 -2.026541 0.009616
v 2.036051 -2.026541 1.649840
v 2.036052 0.730421 -1.630607
v 2.036051 0.730421 1.649841
v 2.036052 0.529279 -1.630607
v 2.036051 0.529279 1.649841
v 2.036051 0.577720 1.962634
v 2.036051 0.376578 1.962634
v 2.036052 0.594752 -1.914494
v 2.036052 0.393610 -1.914494
v 2.036051 -2.026541 -0.810496
v 2.036052 1.469838 -0.810495
v 2.036051 1.469838 0.829729
v 2.036051 -2.026541 0.829728
v 2.036051 -1.719939 1.649840
v 2.036051 -1.719939 -1.630608
v 6.080278 0.594752 -1.914493
v 6.080278 -2.026541 -1.630607
v -2.459388 3.783477 1.253717
v -2.459387 -2.026541 1.253717
v -2.459387 0.115808 -1.275226
v 6.462893 0.124217 -1.338748
v -2.459387 3.580013 -1.275226
v 6.080278 1.026515 1.253718
v 6.080278 -2.026541 1.253718
v -2.700274 3.480561 1.253717
v -2.009907 3.783477 1.253717
v -2.009907 -2.026541 1.253717
v -2.700274 3.501949 -1.275226
v -2.700274 3.807797 -1.275226
v 6.733890 1.026515 1.253718
v 6.733890 0.798508 1.253718
v 2.025492 3.807797 -1.275225
v 6.733890 1.050835 -1.275225
v 1.754495 -2.026541 1.253717
v 1.754494 3.783477 1.253718
v 6.462893 -1.701294 -1.338748
v -2.459387 3.807797 -1.275226
v -2.459387 -2.026541 -1.275227
v 1.754494 1.026515 1.253718
v 6.080278 0.730421 -1.630607
v 6.080278 -1.719939 1.649841
v 6.080278 -2.026541 0.829729
v 1.754494 3.588391 1.253718
v 6.462893 1.026515 1.253718
v 2.025492 3.540572 -1.275225
v 6.733890 0.820621 -1.275225
v 6.080278 1.469838 0.829729
v 6.080278 1.469838 -0.810495
v 6.080278 -2.026541 -0.810495
v 6.080278 0.393610 -1.914493
v 2.036051 1.026515 1.253718
v 2.036051 -2.026541 1.253717
v 6.462893 0.395953 0.009617
v -2.459387 0.388339 0.009616
v 6.462893 0.388339 -1.630607
v 6.462893 0.388339 1.649841
v 6.080278 0.730421 1.649841
v 6.080278 -2.026541 1.649841
v 6.080278 -2.026541 0.009617
v 6.080278 2.569549 0.009617
v 6.462893 -2.026541 1.361155
v 6.462893 0.870646 1.361155
v 1.754494 2.814971 1.253718
v 2.036052 1.050835 -1.275225
v 2.036051 -2.026541 -1.275226
v 1.484285 3.807797 -1.275225
v 1.484284 -2.026541 -1.275226
v 1.754495 3.807797 -1.275225
v 1.754495 -2.026541 -1.275226
v 6.462893 1.050835 -1.275225
v 1.754495 1.050835 -1.275226
v -2.459387 0.115808 0.009616
v -2.459387 0.115808 -0.810496
v -2.009906 0.115808 -1.630608
v 6.462893 0.395229 -1.338748
v -2.459387 0.388339 -1.275226
v 6.462893 -1.701259 1.361155
v -2.459387 -1.719939 1.253717
v 6.462893 -2.026541 -1.338748
v 6.080278 0.376578 1.962635
v 6.080278 0.577720 1.962635
v 6.080278 0.529279 1.649841
v 6.080278 0.529279 -1.630607
v 1.484284 -2.026541 1.253717
v 1.484283 3.783477 1.253718
v -2.700274 3.783477 1.253717
v 2.025491 3.516252 1.253718
v 2.025491 3.783477 1.253718
v 6.462893 0.898685 -1.338748
v 1.754495 3.618636 -1.275225
v 6.080278 0.115808 1.649841
v 2.036051 0.115808 1.649841
v 6.080278 1.050835 -1.275225
v 6.080278 -2.026541 -1.275225
v 6.462893 0.381643 0.829729
v -2.459387 0.388339 0.829728
v 6.462893 0.123565 0.009617
v 1.484284 0.388339 1.649841
v 6.080278 0.388339 -1.630607
v 6.462893 0.390354 1.361155
v 6.080278 0.388339 1.649841
v 2.036052 0.115808 -1.630607
v -2.459387 0.730421 -1.630608
v -2.009907 3.807797 -1.275226
v -2.009906 -2.026541 -1.275226
v 1.754495 2.809951 -1.275226
v 1.484284 0.115808 1.649841
v -2.009907 0.115808 1.649840
v -2.009906 0.388339 -1.630608
v -2.009907 0.388339 1.649840
v 2.036052 0.388339 -1.630607
v 2.036051 0.388339 1.649841
v 1.484285 0.115808 -1.630607
v 6.080278 0.115808 -1.630607
v -2.459387 0.388339 -0.810496
v 6.462893 0.381534 -0.810495
v 6.462893 0.111862 -0.810495
v 6.462893 0.111905 0.829729
v -2.459387 0.115808 0.829728
v 6.462893 0.119977 1.361155
v 1.754495 -2.026541 1.723318
v -2.459387 -2.026541 1.723318
v 1.754494 0.730421 1.723318
v -2.459388 0.730421 1.723318
v 1.754494 3.220158 1.723319
v 6.462893 -2.026541 1.723318
v 6.462893 0.529279 1.723319
v 1.754494 0.529279 1.723318
v -2.459388 0.529279 1.723318
v 1.754495 -1.719939 1.723318
v -2.459387 -1.719939 1.723318
v 6.462893 -1.719939 1.723318
v 1.754494 2.815246 1.723318
v 1.484284 -2.026541 1.723318
v -2.009907 2.815246 1.723318
v -2.009907 -1.719939 1.723318
v -2.009907 0.529279 1.723318
v -2.009907 3.220158 1.723318
v -2.009907 0.730421 1.723318
v -2.009907 -2.026541 1.723318
v 1.484284 -1.719939 1.723318
v 1.484284 2.815246 1.723318
v 1.484283 3.220158 1.723319
v 1.484284 0.730421 1.723318
v 1.484284 0.529279 1.723318
v 2.036051 -2.026541 1.723318
v 2.036051 0.529279 1.723318
v 2.036051 -1.719939 1.723318
v 6.080278 -1.719939 1.723318
v 6.462893 0.388339 1.723319
v 6.080278 -2.026541 1.723318
v 6.080278 0.529279 1.723319
v 6.080278 0.115808 1.723319
v 2.036051 0.115808 1.723318
v 6.462893 0.115808 1.723319
v 1.484284 0.388339 1.723318
v 6.080278 0.388339 1.723319
v 1.484284 0.115808 1.723318
v -2.009907 0.115808 1.723318
v -2.009907 0.388339 1.723318
v 2.036051 0.388339 1.723318
v 1.754494 0.115808 1.723318
v 1.754494 0.388339 1.723318
v -2.504548 -2.026541 1.649840
v -2.504548 -2.026541 -1.630608
v -2.504548 0.730421 1.649840
v -2.504548 0.730421 -1.630608
v -2.504548 0.730421 0.009616
v -2.504548 -2.026541 0.009616
v -2.504548 0.529279 1.649840
v -2.504548 0.529279 -1.630608
v -2.504548 0.529279 0.009616
v -2.504548 -2.026541 -0.810496
v -2.504548 0.730421 -0.810496
v -2.504548 0.529279 -0.810496
v -2.504548 0.730421 0.829728
v -2.504548 -2.026541 0.829728
v -2.504548 0.529279 0.829728
v -2.504548 -1.719939 1.649840
v -2.504548 -1.719939 -1.630608
v -2.504548 -1.719939 0.009616
v -2.504548 -1.719939 -0.810496
v -2.504548 -1.719939 0.829728
v -2.504548 -2.026541 1.253717
v -2.504548 0.529279 -1.275226
v -2.504548 -1.719939 -1.275227
v -2.504548 -2.026541 -1.275227
v -2.504548 0.730421 1.253717
v -2.504548 0.388339 0.009616
v -2.504548 0.388339 -1.275226
v -2.504548 -1.719939 1.253717
v -2.504548 0.730421 -1.275226
v -2.504548 0.529279 1.253717
v -2.504548 0.388339 0.829728
v -2.504548 0.388339 1.253717
v -2.504548 0.388339 -0.810496
v -2.504548 0.388339 -1.630608
v -2.504548 0.388339 1.649840
v -2.504548 -2.026541 1.723318
v -2.504548 0.730421 1.723318
v -2.504548 0.529279 1.723318
v -2.504548 -1.719939 1.723318
v -2.504548 0.388339 1.723318
v 2.036051 -2.026541 -1.630608
v 6.080278 -1.719939 -1.630607
v 1.484285 0.388339 -1.630607
v 1.754495 0.388339 -1.630607
v -2.459387 0.730421 -1.713400
v 1.754496 3.220158 -1.713399
v 6.462893 0.529279 -1.713398
v 1.754495 0.529279 -1.713399
v 6.462893 -2.026541 -1.713399
v 1.754495 0.730421 -1.713399
v 6.462893 -1.719939 -1.713399
v 1.754495 2.815246 -1.713399
v -2.009906 2.815246 -1.713400
v -2.009907 3.220158 -1.713399
v 1.484285 2.815246 -1.713399
v 1.484284 -1.719939 -1.713399
v 1.484285 0.730421 -1.713399
v 1.484285 3.220158 -1.713399
v 2.036052 0.529279 -1.713399
v 2.036051 -1.719939 -1.713399
v -2.459386 -2.026541 -1.713400
v 6.080278 -1.719939 -1.713399
v 6.462893 0.388339 -1.713398
v 6.462893 0.115808 -1.713398
v -2.009906 0.115808 -1.713400
v 6.080278 0.529279 -1.713398
v 1.754495 -2.026541 -1.713399
v 1.484285 0.388339 -1.713399
v 6.080278 0.388339 -1.713398
v 2.036052 0.115808 -1.713399
v 1.754495 0.115808 -1.713399
v -2.009906 0.388339 -1.713400
v 2.036052 0.388339 -1.713399
v 1.484285 0.115808 -1.713399
v 6.080278 0.115808 -1.713399
v 1.754495 -1.719939 -1.713399
v -2.009906 -1.719939 -1.713400
v -2.009906 0.529279 -1.713400
v -2.009906 0.730421 -1.713400
v 1.484284 -2.026541 -1.713399
v -2.009906 -2.026541 -1.713400
v 1.484285 0.529279 -1.713399
v 2.036051 -2.026541 -1.713399
v 6.080278 -2.026541 -1.713399
v -2.459387 0.388339 -1.713400
v 1.754495 0.388339 -1.713399
v -2.504548 -2.026541 -1.713400
v -2.504548 -1.719939 -1.713400
v 6.508929 -2.026541 0.009617
v 6.508929 -2.026541 1.649841
v 6.508929 -2.026541 -1.630607
v 6.508929 -2.026541 -0.810495
v 6.508929 -2.026541 0.829729
v 6.508929 -1.711214 0.009617
v 6.508929 -1.719939 -1.630607
v 6.508929 -1.719939 1.649841
v 6.508929 -1.704626 -0.810495
v 6.508929 -1.705022 0.829729
v 6.508929 0.124217 -1.338748
v 6.508929 -1.701294 -1.338748
v 6.508929 0.395953 0.009617
v 6.508929 0.388339 -1.630607
v 6.508929 0.388339 1.649841
v 6.508929 -2.026541 1.361155
v 6.508929 0.115808 -1.630607
v 6.508929 0.395229 -1.338748
v 6.508929 -1.701259 1.361155
v 6.508929 -2.026541 -1.338748
v 6.508929 0.381643 0.829729
v 6.508929 0.123565 0.009617
v 6.508929 0.115808 1.649841
v 6.508929 0.390354 1.361155
v 6.508929 0.381534 -0.810495
v 6.508929 0.111862 -0.810495
v 6.508929 0.111905 0.829729
v 6.508929 0.119977 1.361155
v 6.508929 -2.026541 1.723318
v 6.508929 -1.719939 1.723318
v 6.508929 0.388339 1.723319
v 6.508929 0.115808 1.723319
v 6.508929 -2.026541 -1.713399
v 6.508929 0.388339 -1.713398
v 6.508929 0.115808 -1.713398
v 6.508929 -1.719939 -1.713399
v -2.459387 0.529279 -1.630608
v -2.459387 0.388339 -1.630608
v -2.459387 0.529279 -1.713400
v -2.489693 0.730421 -1.630608
v -2.489693 0.529279 -1.630608
v -2.489693 0.388339 -1.630608
v -2.489693 0.730421 -1.713400
v -2.489693 0.529279 -1.713400
v -2.489693 0.388339 -1.713400
v -2.459387 -1.719939 1.649840
v -2.459386 -1.719939 -1.630608
v -2.459388 0.730421 1.649840
v -2.459388 3.220158 1.649840
v -2.459388 0.388339 1.649840
v -2.459387 3.220158 -1.713399
v -2.459386 -1.719939 -1.713400
v -2.459387 0.115808 -1.713400
v -2.459387 -1.719939 -1.275227
v -2.459388 0.730421 1.253717
v -2.459388 0.388339 1.253717
v -2.459388 0.115808 1.253717
v -2.459388 0.115808 1.723318
v -2.459387 2.815246 -1.713400
v -2.459388 3.552699 1.253717
v -2.459387 0.730421 -1.275226
v -2.459388 3.220158 1.723317
v -2.459388 2.815246 1.723318
v -2.459388 0.388339 1.723318
v -2.513969 0.730421 1.649840
v -2.513968 -1.719939 1.649840
v -2.513968 -1.719939 -1.630608
v -2.519899 2.807363 -1.275226
v -2.519899 2.796487 0.829728
v -2.513968 0.115808 -1.275226
v -2.513968 3.580013 -1.275226
v -2.513969 3.552699 1.253717
v -2.513968 -1.719939 -1.275227
v -2.513968 0.388339 -1.275226
v -2.513968 -1.719939 1.253717
v -2.513969 0.388339 1.253717
v -2.513969 0.115808 1.253717
v -2.513969 0.115808 1.649840
v -2.513968 0.115808 -1.630608
v -2.513968 0.388339 -1.630608
v -2.513969 0.388339 1.649840
v -2.513969 3.220158 1.723317
v -2.513968 -1.719939 1.723318
v -2.513969 0.115808 1.723318
v -2.513969 0.388339 1.723318
v -2.513968 0.730421 -1.713400
v -2.513968 -1.719939 -1.713400
v -2.513968 0.115808 -1.713400
v -2.513968 0.388339 -1.713400
v 6.080278 0.388339 -1.715415
v 2.036052 0.115808 -1.715416
v 2.036052 0.388339 -1.715416
v 6.080278 0.115808 -1.715415
v 6.080278 0.115808 1.736631
v 2.036051 0.115808 1.736630
v 6.080278 0.388339 1.736631
v 2.036051 0.388339 1.736630
v -2.459387 3.085407 0.009616
v 1.754495 3.090903 0.009617
v -2.459387 3.100504 -0.810496
v 1.754495 3.096987 -0.810495
v 1.754494 3.096987 0.829729
v -2.009907 3.101714 -1.630608
v -2.009907 3.101714 1.649840
v 1.484285 3.101714 -1.630607
v 1.484283 3.101714 1.649841
v 1.754494 3.093845 1.253718
v 1.754495 3.090899 -1.275225
v 1.754494 3.101714 1.723319
v -2.009907 3.101714 1.723318
v 1.484283 3.101714 1.723319
v 1.754496 3.101714 -1.713399
v -2.009907 3.101714 -1.713399
v 1.484285 3.101714 -1.713399
v -2.459388 3.086240 1.253717
v -2.459388 3.101714 1.723317
v -2.519899 2.797054 -0.810496
v -2.519899 2.806851 0.009616
v -2.513968 3.093765 -1.275226
v -2.513969 3.101714 1.723317
v -2.513968 3.101714 -1.713399
v -2.459387 3.101714 -1.713399
v -2.459387 2.806851 0.009616
v -2.459387 2.807363 -1.275226
v -2.459388 2.807734 1.253717
v -2.513968 0.730421 -1.630608
v -2.513969 3.220158 1.649840
v -2.513968 3.220158 -1.630608
v -2.513968 2.815246 -1.630608
v -2.513969 2.815246 1.649840
v -2.513969 0.730421 1.253717
v -2.513969 2.807734 1.253717
v -2.513968 0.730421 -1.275226
v -2.513968 2.807363 -1.275226
v -2.513969 0.730421 1.723318
v -2.513969 2.815246 1.723318
v -2.513968 3.220158 -1.713399
v -2.513968 2.815246 -1.713400
v -2.459388 3.100474 0.829728
v -2.513968 3.101714 -1.630608
v -2.513969 3.101714 1.649840
v -2.513969 3.090755 1.253717
v -2.459387 3.093765 -1.275226
v -2.519899 2.807734 1.253717
v -2.519899 3.085407 0.009616
v -2.519899 3.100504 -0.810496
v -2.519899 3.100474 0.829728
v -2.519899 3.086240 1.253717
v -2.519899 3.093765 -1.275226
v 1.754495 -2.026541 1.451779
v 1.754494 3.635430 1.451780
v 1.754494 0.878468 1.451779
v -2.459388 3.635430 1.451778
v -2.459387 -2.026541 1.451778
v 1.754494 3.404274 1.451780
v 6.462893 0.878468 1.451780
v 6.462893 -2.026541 1.505498
v 6.462893 0.699963 1.505498
v 6.733890 0.878468 1.451780
v 6.733890 0.663893 1.451780
v 2.025491 3.635430 1.451780
v 2.025491 3.368205 1.451780
v -2.700274 3.635430 1.451778
v -2.700274 3.350359 1.451778
v 1.754494 2.815108 1.451779
v -2.009907 3.635430 1.451778
v 1.484283 3.635430 1.451780
v 2.036051 -2.026541 1.451779
v 2.036051 0.878468 1.451779
v 1.484284 -2.026541 1.451779
v 6.080278 -2.026541 1.451779
v -2.009907 -2.026541 1.451778
v 6.080278 0.878468 1.451780
v 6.462893 0.389346 1.505498
v -2.504548 0.730421 1.451778
v -2.504548 -2.026541 1.451778
v -2.504548 0.529279 1.451778
v -2.504548 -1.719939 1.451778
v -2.504548 0.388339 1.451778
v 6.508929 -2.026541 1.505498
v 6.508929 -1.710599 1.505498
v 6.508929 0.389346 1.505498
v 6.508929 0.117892 1.505498
v -2.459388 3.386429 1.451778
v -2.513969 3.386429 1.451778
v -2.513968 -1.719939 1.451778
v -2.513969 0.388339 1.451778
v -2.513969 0.115808 1.451778
v -2.459388 0.730421 1.451778
v -2.459387 -1.719939 1.451778
v -2.459388 0.388339 1.451778
v 1.754494 3.097780 1.451780
v -2.513969 0.730421 1.451778
v -2.513969 2.811490 1.451778
v -2.513969 3.096234 1.451778
v 1.484284 -2.026541 -1.452917
v -2.009906 -2.026541 -1.452917
v 2.025493 3.380365 -1.452916
v 6.733890 0.674950 -1.452916
v -2.504548 -2.026541 -1.452918
v 1.754495 2.812855 -1.452916
v -2.009907 3.647590 -1.452917
v 6.080278 -2.026541 -1.452916
v -2.504548 0.388339 -1.452917
v -2.504548 -1.719939 -1.452918
v -2.504548 0.529279 -1.452917
v -2.504548 0.730421 -1.452917
v 2.025493 3.647590 -1.452916
v 6.733890 0.890628 -1.452916
v 1.754496 3.647590 -1.452916
v 1.754495 -2.026541 -1.452917
v 6.080278 0.890628 -1.452916
v 1.484285 3.647590 -1.452916
v 6.462893 0.391784 -1.484677
v 2.036052 0.890628 -1.452916
v -2.513968 3.097739 -1.452917
v -2.513968 2.811304 -1.452917
v 1.803283 3.096306 -1.452916
v 1.803283 3.419397 -1.452916
v 1.803283 3.096987 -0.810495
v 1.803282 3.096987 0.829729
v 1.803282 3.093845 1.253718
v 1.803283 3.090899 -1.275225
v 1.803281 3.220158 1.723319
v 1.803282 2.815246 1.723318
v 1.803283 3.220158 -1.713399
v 1.803283 0.730421 -1.713399
v 1.803281 3.101714 1.723319
v 1.803283 3.101714 -1.713399
v 1.803282 0.878468 1.451779
v 1.803281 3.404274 1.451780
v 1.803283 2.815246 -1.713399
v 1.803282 3.090903 0.009617
v 1.803281 3.101714 1.649841
v 1.803283 3.101714 -1.630607
v 1.803282 2.813236 0.009617
v 1.803282 2.815246 1.649841
v 1.803283 2.815759 -1.630607
v 1.803282 2.802405 -0.810495
v -2.513968 0.115808 -1.452917
v -2.513968 0.388339 -1.452917
v -2.513968 -1.719939 -1.452918
v -2.513968 3.400085 -1.452917
v -2.459387 -1.719939 -1.452918
v -2.459387 3.400085 -1.452917
v 6.462893 -2.026541 -1.484678
v -2.459387 0.730421 -1.452917
v -2.513968 0.730421 -1.452917
v 6.508929 -1.710616 -1.484678
v 6.508929 0.120013 -1.484677
v 6.508929 0.391784 -1.484677
v 6.462893 0.890628 -1.452916
v 1.754495 0.890628 -1.452916
v -2.459387 3.647590 -1.452917
v -2.459387 -2.026541 -1.452918
v 1.803282 2.817439 0.829729
v 1.803282 2.814971 1.253718
v 1.803283 2.809951 -1.275226
v 1.803282 0.730421 1.723318
v 1.754496 3.096306 -1.452916
v 6.508929 -2.026541 -1.484678
v -2.459387 0.388339 -1.452917
v 2.036051 -2.026541 -1.452917
v 1.754496 3.419397 -1.452916
v 6.462893 0.713982 -1.484677
v -2.700274 3.361054 -1.452917
v -2.700274 3.647590 -1.452917
v 1.803282 2.815108 1.451779
v 1.803281 3.097780 1.451780
v 1.803283 2.812855 -1.452916
v 1.803283 0.890628 -1.452916
v 1.803281 3.220158 1.649841
v 1.803283 3.220158 -1.630607
v 1.803282 0.730421 1.649841
v 1.803283 0.730421 -1.630607
v -0.861353 -2.026541 1.649840
v -0.861353 3.351714 -1.914494
v -0.861354 3.334682 1.962633
v -0.861354 3.487383 1.649840
v -0.861353 -2.026541 0.829728
v -0.861353 3.487383 -1.630607
v -0.861353 -2.026541 -1.630608
v -0.861353 -2.026541 -0.810496
v -0.861353 -1.719939 -1.630608
v -0.861353 -1.719939 1.649840
v -0.861353 2.815246 -1.630608
v -0.861354 2.815246 1.649840
v -0.861353 4.226800 -0.810496
v -0.861353 5.326511 0.009616
v -0.861354 4.226800 0.829728
v -0.861354 3.067457 1.962633
v -0.861354 3.220158 1.649840
v -0.861354 0.730421 1.649840
v -0.861353 3.084490 -1.914494
v -0.861353 0.730421 -1.630608
v -0.861353 -2.026541 0.009616
v -0.861353 3.220158 -1.630607
v -0.861353 -2.026541 1.253717
v -0.861354 3.783477 1.253717
v -0.861354 0.115808 1.649840
v -0.861354 0.388339 1.649840
v -0.861353 -2.026541 -1.275226
v -0.861353 3.807797 -1.275226
v -0.861353 0.115808 -1.630608
v -0.861353 -2.026541 1.723318
v -0.861353 -1.719939 1.723318
v -0.861354 0.730421 1.723318
v -0.861354 0.529279 1.723318
v -0.861354 0.388339 1.723318
v -0.861353 -2.026541 -1.713400
v -0.861353 0.529279 -1.713400
v -0.861353 0.388339 -1.630608
v -0.861353 -1.719939 -1.713400
v -0.861353 0.730421 -1.713400
v -0.861353 0.388339 -1.713400
v -0.861354 3.101714 1.649840
v -0.861353 3.101714 -1.630607
v -0.861354 3.635430 1.451779
v -0.861353 -2.026541 1.451779
v -0.861353 3.647590 -1.452917
v -0.861353 -2.026541 -1.452917
v 0.311466 -1.719939 -1.713400
v 0.311466 0.388339 -1.630608
v 0.311466 0.529279 -1.713399
v 0.311466 -2.026541 -1.713400
v -0.952694 -2.026541 1.649840
v -0.952694 3.351714 -1.914494
v 0.392912 3.351714 -1.914494
v 0.392911 -2.026541 1.649840
v -0.952694 0.388339 -1.630608
v -0.952694 -1.719939 -1.713400
v 0.311465 2.815246 1.649840
v 0.311466 2.815246 -1.630608
v 0.311465 -1.719939 1.649840
v 0.311466 -1.719939 -1.630608
v 0.311465 0.388339 1.723318
v 0.311465 0.529279 1.723318
v 0.311465 0.730421 1.723318
v 0.311465 -1.719939 1.723318
v -0.952694 -2.026541 0.009616
v -0.952694 3.220158 -1.630607
v 0.392911 0.115808 1.649840
v 0.392911 -2.026541 1.253717
v 0.392912 3.487383 -1.630607
v 0.392911 -2.026541 0.829728
v -0.952694 0.115808 -1.630608
v -0.952694 -2.026541 1.723318
v 0.311466 -2.026541 -0.810496
v 0.311466 -2.026541 -1.630608
v 0.311466 3.487383 -1.630607
v 0.311466 -2.026541 0.829728
v -0.952694 -1.719939 -1.630608
v -0.952694 -1.719939 1.649840
v -0.952695 3.334682 1.962633
v -0.952695 3.487383 1.649840
v -0.952694 -2.026541 -1.630608
v -0.952694 -2.026541 -0.810496
v -0.952694 2.815246 -1.630608
v -0.952694 2.815246 1.649840
v -0.952694 -2.026541 0.829728
v -0.952694 3.487383 -1.630607
v -0.952694 -2.026541 1.451779
v -0.952694 -2.026541 -1.452917
v -0.952695 3.783477 1.253717
v -0.952694 3.807797 -1.275226
v -0.952695 3.220158 1.649840
v -0.952694 0.730421 1.649840
v 0.311465 3.067457 1.962634
v 0.311465 4.226800 0.829729
v 0.311465 5.326511 0.009617
v 0.311466 4.226800 -0.810495
v 0.392911 -2.026541 -1.275226
v 0.392911 0.388339 1.649840
v 0.392911 -1.719939 1.649840
v 0.392911 -1.719939 -1.630608
v 0.392911 0.388339 1.723318
v 0.392911 0.529279 1.723318
v 0.311465 3.487383 1.649841
v 0.311465 3.334682 1.962634
v 0.311466 3.351714 -1.914494
v 0.311465 -2.026541 1.649840
v -0.952694 -2.026541 -1.713400
v -0.952694 0.529279 -1.713400
v -0.952694 0.529279 1.723318
v -0.952694 0.388339 1.723318
v 0.311466 3.647590 -1.452916
v 0.311465 3.635430 1.451779
v 0.311466 3.807797 -1.275226
v 0.311465 3.783477 1.253718
v -0.952694 4.226800 -0.810496
v -0.952694 5.326511 0.009616
v 0.392911 -2.026541 -0.810496
v 0.392911 -2.026541 -1.630608
v 0.311466 -2.026541 -1.452917
v 0.311465 -2.026541 1.451779
v 0.392912 0.529279 -1.713399
v 0.392911 -2.026541 -1.713400
v 0.392911 5.326511 0.009617
v 0.392912 4.226800 -0.810495
v 0.392910 3.067457 1.962634
v 0.392911 4.226800 0.829729
v -0.952694 4.226800 0.829728
v -0.952695 3.067457 1.962633
v -0.952694 0.388339 1.649840
v -0.952694 -2.026541 -1.275226
v 0.392911 0.730421 1.723318
v 0.392911 -1.719939 1.723318
v 0.311466 3.101714 -1.630607
v 0.311465 3.101714 1.649841
v 0.311466 0.388339 -1.713399
v 0.311466 0.730421 -1.713399
v -0.952694 0.388339 1.686828
v 0.311465 0.115808 1.686828
v 0.311465 0.115808 1.649840
v 0.311466 -2.026541 1.253717
v 0.311466 3.220158 -1.630607
v 0.311466 -2.026541 0.009616
v -0.861354 0.388339 1.686828
v 0.311465 -1.719939 1.686828
v 0.392912 3.220158 -1.630607
v 0.392911 -2.026541 0.009616
v 0.392911 0.115808 1.686828
v -0.952694 -1.719939 1.686828
v -0.952694 -1.719939 1.723318
v -0.952694 0.730421 1.723318
v 0.392912 0.730421 -1.630608
v 0.392912 3.084490 -1.914494
v 0.392910 3.487383 1.649841
v 0.392910 3.334682 1.962634
v 0.392911 -2.026541 -1.452917
v 0.392911 -2.026541 1.451779
v 0.392911 0.730421 1.649840
v 0.392910 3.220158 1.649841
v 0.311466 0.730421 -1.630608
v 0.311466 3.084490 -1.914494
v 0.311465 0.730421 1.649840
v 0.311465 3.220158 1.649841
v 0.392911 2.815246 1.649840
v 0.392912 2.815246 -1.630608
v -0.952694 -2.026541 1.253717
v -0.952694 0.115808 1.649840
v -0.861353 -1.719939 1.686828
v -0.861354 0.115808 1.686828
v 0.392911 0.388339 1.686828
v 0.392911 -1.719939 1.686828
v -0.952694 3.084490 -1.914494
v -0.952694 0.730421 -1.630608
v 0.311465 -2.026541 1.723318
v 0.311466 0.115808 -1.630608
v 0.311466 -2.026541 -1.275226
v 0.311465 0.388339 1.649840
v 0.392912 0.388339 -1.630608
v 0.392911 -1.719939 -1.713400
v -0.952694 3.647590 -1.452917
v -0.952695 3.635430 1.451779
v 0.311465 0.388339 1.686828
v -0.952694 0.115808 1.686828
v -0.952694 3.101714 -1.630607
v -0.952695 3.101714 1.649840
v -0.952694 0.388339 -1.713400
v -0.952694 0.730421 -1.713400
v 0.392912 0.115808 -1.630608
v 0.392911 -2.026541 1.723318
v 0.392912 3.101714 -1.630607
v 0.392910 3.101714 1.649841
v 0.392912 0.388339 -1.713399
v 0.392912 0.730421 -1.713399
v 0.392912 3.647590 -1.452916
v 0.392911 3.635430 1.451779
v 0.392912 3.807797 -1.275226
v 0.392911 3.783477 1.253718
v -2.009906 2.815246 -1.708338
v 1.484285 2.815246 -1.708337
v -2.009907 3.101714 -1.708338
v 1.484285 3.101714 -1.708337
v -0.861353 2.815246 -1.708338
v -0.861353 3.101714 -1.708337
v 0.311466 2.815246 -1.708338
v -0.952694 2.815246 -1.708338
v 0.311466 3.101714 -1.708337
v 0.392912 2.815246 -1.708338
v -0.952694 3.101714 -1.708337
v 0.392912 3.101714 -1.708337
v -2.009907 2.815246 1.720213
v 1.484284 2.815246 1.720214
v -2.009907 3.101714 1.720213
v 1.484283 3.101714 1.720214
v -0.861354 2.815246 1.720213
v -0.861354 3.101714 1.720213
v 0.311465 2.815246 1.720213
v -0.952694 2.815246 1.720213
v 0.311465 3.101714 1.720214
v 0.392911 2.815246 1.720213
v -0.952695 3.101714 1.720213
v 0.392910 3.101714 1.720214
vn -0.0000 -1.0000 -0.0000
vn -0.0000 0.8010 0.5987
vn -0.0000 0.8536 0.5210
vn -1.0000 -0.0000 -0.0000
vn -0.0000 -0.9999 0.0132
vn -0.0000 0.6457 0.7636
vn -0.0000 1.0000 -0.0000
vn -0.0000 -0.9023 0.4312
vn -0.0000 0.6735 -0.7392
vn -0.0000 0.8311 -0.5562
vn -0.0000 0.9023 -0.4312
vn -0.2132 -0.6413 -0.7371
vn -0.0000 -0.8986 -0.4387
vn -0.0000 0.9998 -0.0199
vn 1.0000 -0.0000 -0.0000
vn -0.0000 -0.0000 1.0000
vn 0.2414 -0.6455 0.7246
vn -0.0000 0.8986 0.4387
vn -0.0000 -0.0000 -1.0000
vn -0.2051 -0.6171 -0.7597
vn -0.0919 -0.6968 0.7113
vn -0.0506 -0.7022 0.7102
vn -0.0000 0.7427 -0.6696
vn 0.3697 -0.6897 0.6226
vn -0.2132 -0.6413 0.7371
vn -0.2051 -0.6171 0.7597
vn 0.2414 -0.6455 -0.7246
vn -0.0000 0.7486 0.6630
vn -0.4278 -0.6530 -0.6249
vn -0.2891 -0.6211 -0.7285
vn -0.0000 0.9997 -0.0236
vn -0.0000 -1.0000 0.0051
vn -0.1512 -0.7574 -0.6351
vn -0.3277 -0.7052 -0.6287
vn -0.0000 1.0000 -0.0076
vn -0.3999 -0.6914 0.6017
vn -0.3176 -0.6667 0.6743
vn -0.0000 1.0000 -0.0071
vn -0.0000 1.0000 0.0070
vn -0.0000 -0.9999 -0.0142
vn -0.0000 1.0000 0.0063
vn -0.0000 0.9998 0.0174
vn -0.0000 -0.9997 -0.0234
vn -0.0000 -0.9999 0.0143
vn -0.0000 0.9997 0.0259
vn -0.0000 -0.9999 0.0152
vn -0.0000 1.0000 0.0080
vn -0.0000 0.9999 -0.0164
vn -0.0000 0.9998 -0.0176
vn -0.0000 0.7659 0.6430
vn 0.0598 -0.7992 -0.5981
vn 0.3401 -0.6495 -0.6800
vn -0.0000 -0.8010 -0.5987
vn 0.1775 -0.7305 0.6594
vn -0.0000 0.9999 -0.0131
vn -0.0000 0.9995 0.0304
vn -0.0000 -1.0000 0.0007
vn -0.0509 -0.7653 -0.6417
vn -0.1149 -0.7415 -0.6611
vn 0.1770 -0.7880 -0.5897
vn -0.1502 -0.6951 0.7031
vn -0.0000 0.7027 -0.7115
vn -0.0000 -0.9999 -0.0163
vn -0.0000 0.7324 0.6809
vn 0.0600 -0.7409 0.6689
vn -0.0000 1.0000 0.0074
vn -0.2667 -0.6744 0.6885
vn -0.0000 1.0000 -0.0074
vn -0.0000 -0.9999 -0.0162
vn -0.0000 -1.0000 -0.0058
vn -0.0000 -0.7427 0.6696
vn -0.0000 0.6656 -0.7463
vn -0.0000 -0.9996 0.0265
vn -0.0000 -0.9999 -0.0126
vn -0.0000 0.9999 -0.0145
vn -0.0000 0.9998 0.0184
vn -0.0000 -0.9999 0.0119
vn -0.0000 -0.9998 -0.0222
vn -0.0000 0.9998 -0.0184
vn -0.0000 0.9994 0.0336
vt -0.601011 2.090208
vt 0.051729 0.789353
vt 0.034590 0.791508
vt 0.033371 0.781915
vt 0.050768 0.779912
vt 0.196313 0.789210
vt 0.197258 0.779178
vt 0.208509 0.780153
vt 0.207330 0.790462
vt 0.523241 0.806037
vt 0.524076 0.794399
vt 0.541025 0.796851
vt 0.539486 0.807706
vt 0.851442 0.811060
vt 0.912527 0.810253
vt 0.040103 0.823281
vt 0.052378 0.861714
vt 0.046151 0.861956
vt 0.032073 0.825360
vt 0.370487 0.936790
vt 0.382402 0.934256
vt 0.384928 0.944332
vt 0.373229 0.947266
vt 0.055908 0.903021
vt 0.040387 0.900169
vt 0.064251 0.861891
vt 0.186338 0.942748
vt 0.196778 0.941588
vt 0.197949 0.953921
vt 0.187464 0.954911
vt 0.683619 0.900034
vt 0.683524 0.857939
vt 0.693168 0.857917
vt 0.694158 0.904833
vt 0.521602 0.911412
vt 0.512884 0.873755
vt 0.522501 0.873659
vt 0.533799 0.909476
vt 0.681666 0.954527
vt 0.682246 0.942156
vt 0.691877 0.942608
vt 0.691298 0.954979
vt 0.222674 0.928616
vt 0.235875 0.933277
vt 0.231449 0.943525
vt 0.218870 0.938511
vt 0.707943 0.489737
vt 0.639829 0.508035
vt 0.631590 0.501239
vt 0.705860 0.477465
vt 0.758776 0.831960
vt 0.744024 0.832253
vt 0.999973 0.027094
vt 0.811700 0.024687
vt 0.810520 0.000079
vt 0.998792 0.002485
vt 0.053134 0.584074
vt 0.053134 0.604158
vt 0.043802 0.593122
vt 0.043802 0.584009
vt 0.912527 0.832194
vt 0.912527 0.909862
vt 0.851442 0.978354
vt 0.851442 0.831741
vt 0.202879 0.583569
vt 0.202879 0.648240
vt 0.149853 0.703358
vt 0.149853 0.584501
vt 0.048512 0.755984
vt 0.049485 0.766435
vt 0.031998 0.768227
vt 0.030937 0.757777
vt 0.524921 0.779746
vt 0.525766 0.768588
vt 0.544692 0.771750
vt 0.543193 0.781292
vt 0.336252 0.768226
vt 0.301712 0.758867
vt 0.302409 0.751536
vt 0.342683 0.761048
vt 0.239474 0.922815
vt 0.226022 0.918814
vt 0.418053 0.789532
vt 0.404695 0.789011
vt 0.405442 0.772911
vt 0.419410 0.774266
vt 0.528825 0.873406
vt 0.542591 0.907521
vt 0.668647 0.941520
vt 0.668069 0.953891
vt 0.520851 0.976164
vt 0.520783 0.965536
vt 0.538720 0.965270
vt 0.539351 0.974861
vt 0.050502 0.957057
vt 0.049818 0.967725
vt 0.031728 0.966460
vt 0.032436 0.955716
vt 0.555360 0.783303
vt 0.552966 0.798913
vt 0.520696 0.951853
vt 0.537897 0.951031
vt 0.274119 0.962064
vt 0.299008 0.978204
vt 0.299281 0.987280
vt 0.265347 0.966632
vt 0.558902 0.805889
vt 0.550720 0.809565
vt 0.561447 0.795903
vt 0.550408 0.912297
vt 0.535112 0.873579
vt 0.563864 0.780706
vt 0.550192 0.949906
vt 0.558593 0.953754
vt 0.559491 0.967740
vt 0.551177 0.964403
vt 0.551967 0.973829
vt 0.682213 0.782026
vt 0.682096 0.773650
vt 0.691734 0.773328
vt 0.692007 0.781500
vt 0.557099 0.774094
vt 0.681722 0.762460
vt 0.691360 0.762138
vt 0.216792 0.785028
vt 0.218467 0.775221
vt 0.208549 0.904158
vt 0.200496 0.898937
vt 0.186192 0.861079
vt 0.191588 0.861196
vt 0.208990 0.765685
vt 0.218788 0.761176
vt 0.207663 0.940392
vt 0.217349 0.944911
vt 0.217909 0.956927
vt 0.208496 0.952955
vt 0.198125 0.765100
vt 0.198718 0.754353
vt 0.209592 0.754962
vt 0.198918 0.964336
vt 0.209461 0.963355
vt 0.191012 0.900941
vt 0.179340 0.861401
vt 0.359628 0.939378
vt 0.364234 0.949935
vt 0.014861 0.937992
vt 0.024845 0.931855
vt 0.023233 0.941842
vt 0.013183 0.946941
vt 0.021103 0.818397
vt 0.036575 0.861733
vt 0.023749 0.782988
vt 0.014009 0.778737
vt 0.013014 0.765339
vt 0.022593 0.769165
vt 0.022799 0.955112
vt 0.013014 0.959629
vt 0.033371 0.942976
vt 0.021536 0.758733
vt 0.022081 0.965813
vt 0.034547 0.933283
vt 0.053106 0.926095
vt 0.035883 0.923854
vt 0.521775 0.930151
vt 0.536457 0.930841
vt 0.428672 0.607297
vt 0.428672 0.726225
vt 0.374354 0.671224
vt 0.374354 0.608297
vt 0.947142 0.831741
vt 0.947142 0.871049
vt 0.237034 0.584455
vt 0.237034 0.617006
vt 0.357352 0.774915
vt 0.361227 0.767311
vt 0.546674 0.929677
vt 0.554451 0.934410
vt 0.683427 0.815844
vt 0.693944 0.810997
vt 0.212960 0.927156
vt 0.204347 0.921849
vt 0.194379 0.923451
vt 0.327455 0.957396
vt 0.336475 0.963481
vt 0.030675 0.897551
vt 0.018876 0.904770
vt 0.055497 0.820530
vt 0.190502 0.822361
vt 0.201471 0.825283
vt 0.268773 0.762049
vt 0.263709 0.754356
vt 0.522076 0.836441
vt 0.533826 0.839039
vt 0.035928 0.800996
vt 0.026704 0.802550
vt 0.682743 0.926257
vt 0.693412 0.925637
vt 0.790356 0.909862
vt 0.790356 0.832194
vt 0.096827 0.648240
vt 0.096827 0.583576
vt 0.257113 0.946254
vt 0.248961 0.953260
vt 0.543585 0.842056
vt 0.551294 0.837526
vt 0.209751 0.819896
vt 0.016371 0.796733
vt 0.014285 0.090713
vt 0.014285 0.106210
vt 0.012002 0.106210
vt 0.012002 0.090713
vt 0.465257 0.106210
vt 0.465257 0.090713
vt 0.467584 0.090713
vt 0.467584 0.106210
vt 0.877726 0.606281
vt 0.882473 0.577189
vt 0.893173 0.577482
vt 0.885739 0.612495
vt 0.751756 0.348403
vt 0.751756 0.364273
vt 0.749053 0.364273
vt 0.749053 0.348403
vt 0.912527 0.710998
vt 0.851442 0.792909
vt 0.947142 0.679789
vt 0.947142 0.810815
vt 0.790356 0.811373
vt 0.790356 0.710998
vt 0.094008 0.861884
vt 0.092641 0.819331
vt 0.091440 0.776550
vt 0.090768 0.763037
vt 0.093676 0.904032
vt 0.051405 0.944609
vt 0.092287 0.959253
vt 0.092067 0.969851
vt 0.090216 0.752494
vt 0.091902 0.786013
vt 0.093012 0.928646
vt 0.090847 0.349992
vt 0.090847 0.355939
vt 0.037771 0.355939
vt 0.037771 0.349992
vt 0.900170 0.348345
vt 0.900170 0.233809
vt 0.958252 0.233809
vt 0.958252 0.348345
vt 0.367068 0.832998
vt 0.371251 0.793997
vt 0.382420 0.795602
vt 0.379415 0.833932
vt 0.900170 0.200043
vt 0.900170 0.099190
vt 0.958252 0.099190
vt 0.958252 0.200043
vt 0.635400 0.565476
vt 0.624793 0.567961
vt 0.090847 0.230945
vt 0.090847 0.335610
vt 0.037771 0.335610
vt 0.037771 0.230945
vt 0.960377 0.811031
vt 0.960377 0.667856
vt 0.181862 0.902524
vt 0.171728 0.861374
vt 0.368350 0.926047
vt 0.380540 0.924372
vt 0.188392 0.965320
vt 0.184473 0.924717
vt 0.249920 0.879089
vt 0.233937 0.877588
vt 0.144460 0.946259
vt 0.145072 0.958421
vt 0.186364 0.778345
vt 0.187251 0.764443
vt 0.187846 0.753733
vt 0.181371 0.820494
vt 0.185575 0.788114
vt 0.404344 0.800903
vt 0.417002 0.801825
vt 0.407140 0.912132
vt 0.405548 0.872267
vt 0.413734 0.872062
vt 0.415740 0.911792
vt 0.405894 0.762138
vt 0.420581 0.762953
vt 0.564512 0.933122
vt 0.574518 0.933590
vt 0.573940 0.945960
vt 0.563933 0.945492
vt 0.404343 0.979302
vt 0.404815 0.968427
vt 0.419337 0.968254
vt 0.419566 0.979963
vt 0.668488 0.774105
vt 0.583047 0.773333
vt 0.582673 0.762142
vt 0.668114 0.762914
vt 0.405690 0.953154
vt 0.418985 0.954002
vt 0.407530 0.931579
vt 0.417974 0.931102
vt 0.405099 0.832263
vt 0.413796 0.832237
vt 0.548937 0.819811
vt 0.557117 0.815443
vt 0.246822 0.937458
vt 0.240409 0.947743
vt 0.195114 0.799079
vt 0.206176 0.800847
vt 0.240893 0.200089
vt 0.240893 0.107928
vt 0.443927 0.107928
vt 0.443927 0.200089
vt 0.735974 0.215015
vt 0.735974 0.222758
vt 0.513792 0.222758
vt 0.513792 0.215015
vt 0.052731 0.798637
vt 0.092302 0.795383
vt 0.184625 0.797699
vt 0.415268 0.813277
vt 0.523295 0.817265
vt 0.062467 0.615193
vt 0.062467 0.584139
vt 0.538181 0.817921
vt 0.682618 0.934211
vt 0.692532 0.934112
vt 0.758776 0.868796
vt 0.015436 0.787709
vt 0.025274 0.792831
vt 0.215655 0.794945
vt 0.404562 0.812241
vt 0.758776 0.811189
vt 0.758776 0.677978
vt 0.092777 0.937771
vt 0.052206 0.935266
vt 0.026472 0.922275
vt 0.015934 0.928815
vt 0.556159 0.943909
vt 0.548236 0.939275
vt 0.960377 0.832144
vt 0.960377 0.856209
vt 0.240893 0.220847
vt 0.240893 0.213771
vt 0.443927 0.213771
vt 0.443927 0.220847
vt 0.195620 0.932423
vt 0.205897 0.930877
vt 0.214806 0.936141
vt 0.096827 0.448660
vt 0.096827 0.566136
vt 0.062467 0.566658
vt 0.062467 0.448903
vt 0.682179 0.790402
vt 0.692440 0.789665
vt 0.490916 0.198857
vt 0.490916 0.213955
vt 0.488365 0.213955
vt 0.488365 0.198857
vt 0.419008 0.942263
vt 0.520954 0.940618
vt 0.537107 0.940609
vt 0.374354 0.410614
vt 0.374354 0.428665
vt 0.343574 0.428665
vt 0.343574 0.410614
vt 0.348687 0.945321
vt 0.355370 0.953515
vt 0.406593 0.941780
vt 0.246469 0.584232
vt 0.246469 0.605064
vt 0.482990 0.289029
vt 0.482990 0.410614
vt 0.428672 0.410614
vt 0.428672 0.289029
vt 0.428672 0.428665
vt 0.185412 0.933650
vt 0.377576 0.026927
vt 0.189484 0.027099
vt 0.188303 0.002490
vt 0.376394 0.002318
vt 0.090847 0.200089
vt 0.090847 0.213771
vt 0.037771 0.213771
vt 0.037771 0.200089
vt 0.482990 0.428665
vt 0.237034 0.448900
vt 0.237034 0.566932
vt 0.202879 0.566133
vt 0.202879 0.448685
vt 0.149853 0.448259
vt 0.149853 0.566890
vt 0.644707 0.601957
vt 0.636862 0.608930
vt 0.878637 0.040424
vt 0.813320 0.040424
vt 0.812776 0.031896
vt 0.878094 0.031896
vt 0.090847 0.107928
vt 0.037771 0.107928
vt 0.001209 0.024702
vt 0.000027 0.000093
vt 0.374354 0.289029
vt 0.037004 0.219895
vt 0.037004 0.230062
vt 0.014285 0.230062
vt 0.014285 0.219895
vt 0.445918 0.106210
vt 0.445918 0.090713
vt 0.445918 0.198997
vt 0.465257 0.198997
vt 0.037004 0.090713
vt 0.037004 0.106210
vt 0.090440 0.219895
vt 0.090440 0.230062
vt 0.090440 0.212772
vt 0.037004 0.212772
vt 0.090440 0.090713
vt 0.090440 0.106210
vt 0.227273 0.230062
vt 0.227273 0.335438
vt 0.213616 0.335438
vt 0.213616 0.230062
vt 0.227273 0.219895
vt 0.213616 0.219895
vt 0.227273 0.349918
vt 0.227273 0.355905
vt 0.213616 0.355905
vt 0.213616 0.349918
vt 0.227273 0.212772
vt 0.213616 0.212772
vt 0.227273 0.090713
vt 0.227273 0.106210
vt 0.213616 0.106210
vt 0.213616 0.090713
vt 0.241505 0.090713
vt 0.241505 0.106210
vt 0.227273 0.198997
vt 0.241504 0.198997
vt 0.241504 0.212772
vt 0.241504 0.219895
vt 0.445918 0.212772
vt 0.465257 0.212772
vt 0.445918 0.219895
vt 0.465257 0.219895
vt 0.213616 0.198997
vt 0.881243 0.508657
vt 0.889616 0.502410
vt 0.817001 0.624128
vt 0.818987 0.636072
vt 0.942346 0.041381
vt 0.970064 0.041001
vt 0.970329 0.044619
vt 0.942611 0.044999
vt 0.039051 0.593122
vt 0.039051 0.584009
vt 0.330415 0.437676
vt 0.330415 0.451127
vt 0.318532 0.451127
vt 0.318532 0.437676
vt 0.483066 0.437676
vt 0.483066 0.451127
vt 0.428221 0.451127
vt 0.428221 0.437676
vt 0.330415 0.428250
vt 0.318532 0.428250
vt 0.483066 0.428250
vt 0.428221 0.428250
vt 0.373376 0.451127
vt 0.373376 0.437676
vt 0.373376 0.428250
vt 0.511420 0.437676
vt 0.511420 0.451127
vt 0.511420 0.428250
vt 0.330415 0.266756
vt 0.330415 0.287260
vt 0.318532 0.287260
vt 0.318532 0.266756
vt 0.483066 0.266756
vt 0.483066 0.287260
vt 0.428221 0.287260
vt 0.428221 0.266756
vt 0.373376 0.287260
vt 0.373376 0.266756
vt 0.511420 0.266756
vt 0.511420 0.287260
vt 0.524665 0.428250
vt 0.524665 0.437676
vt 0.524665 0.266756
vt 0.524665 0.287260
vt 0.342298 0.437676
vt 0.342298 0.428250
vt 0.524665 0.451127
vt 0.537910 0.437676
vt 0.537910 0.428250
vt 0.542824 0.428250
vt 0.542824 0.437676
vt 0.342298 0.451127
vt 0.342298 0.287260
vt 0.342298 0.266756
vt 0.537910 0.451127
vt 0.542824 0.451127
vt 0.537910 0.287260
vt 0.537910 0.266756
vt 0.542824 0.266756
vt 0.542824 0.287260
vt 0.012002 0.230062
vt 0.012002 0.219895
vt 0.255904 0.593122
vt 0.255904 0.584009
vt 0.261257 0.584009
vt 0.261257 0.593122
vt 0.512112 0.213955
vt 0.512112 0.221763
vt 0.490916 0.221763
vt 0.766725 0.348403
vt 0.766725 0.364273
vt 0.512112 0.198857
vt 0.512112 0.097159
vt 0.490916 0.097159
vt 0.052921 0.427105
vt 0.052921 0.447644
vt 0.043537 0.447037
vt 0.043537 0.427105
vt 0.203484 0.427105
vt 0.203484 0.448032
vt 0.150168 0.447604
vt 0.150168 0.427105
vt 0.237826 0.427105
vt 0.237826 0.448249
vt 0.096853 0.448007
vt 0.096853 0.427105
vt 0.038760 0.447037
vt 0.038760 0.427105
vt 0.062304 0.448251
vt 0.062304 0.427105
vt 0.237826 0.566926
vt 0.237826 0.584545
vt 0.203484 0.583654
vt 0.203484 0.566123
vt 0.247313 0.447643
vt 0.247313 0.566653
vt 0.096853 0.566126
vt 0.096853 0.583662
vt 0.062304 0.584228
vt 0.062304 0.566651
vt 0.150168 0.584592
vt 0.150168 0.566884
vt 0.052921 0.566515
vt 0.052921 0.584162
vt 0.043537 0.584097
vt 0.043537 0.566380
vt 0.038760 0.584097
vt 0.038760 0.566380
vt 0.247313 0.584321
vt 0.256800 0.584097
vt 0.256800 0.566380
vt 0.262182 0.566380
vt 0.262182 0.584097
vt 0.467584 0.198997
vt 0.467584 0.212772
vt 0.319030 0.437783
vt 0.319030 0.451192
vt 0.313511 0.451192
vt 0.313511 0.437783
vt 0.319030 0.428388
vt 0.313511 0.428388
vt 0.330121 0.409901
vt 0.330121 0.428163
vt 0.318214 0.428163
vt 0.318214 0.409901
vt 0.524765 0.409901
vt 0.524765 0.428163
vt 0.511493 0.428163
vt 0.511493 0.409901
vt 0.524765 0.286887
vt 0.511493 0.286887
vt 0.330121 0.286887
vt 0.318214 0.286887
vt 0.538038 0.409901
vt 0.538038 0.286887
vt 0.542961 0.286887
vt 0.542961 0.409901
vt 0.538038 0.428163
vt 0.542961 0.428163
vt 0.312666 0.409901
vt 0.312666 0.286887
vt 0.312666 0.428163
vt 0.014285 0.349918
vt 0.014285 0.355905
vt 0.011526 0.355905
vt 0.011526 0.349918
vt 0.239979 0.766091
vt 0.231541 0.767406
vt 0.230333 0.759534
vt 0.238010 0.758372
vt 0.374226 0.778542
vt 0.384841 0.780422
vt 0.573033 0.773667
vt 0.572659 0.762477
vt 0.375810 0.770551
vt 0.386254 0.772444
vt 0.220014 0.769120
vt 0.218870 0.761187
vt 0.014285 0.212772
vt 0.012002 0.212772
vt 0.233994 0.782220
vt 0.222073 0.783987
vt 0.248307 0.764729
vt 0.245571 0.757097
vt 0.343574 0.289029
vt 0.511071 0.410614
vt 0.511071 0.428665
vt 0.365801 0.776832
vt 0.368444 0.769074
vt 0.735974 0.099190
vt 0.735974 0.200043
vt 0.513792 0.200043
vt 0.513792 0.099190
vt 0.511071 0.289029
vt 0.490916 0.080174
vt 0.488365 0.097159
vt 0.488365 0.080174
vt 0.900170 0.215015
vt 0.958252 0.215015
vt 0.037004 0.349918
vt 0.037004 0.355905
vt 0.037004 0.335438
vt 0.014285 0.335438
vt 0.037004 0.198997
vt 0.014285 0.198997
vt 0.960300 0.348403
vt 0.960300 0.232906
vt 0.985200 0.232906
vt 0.985200 0.348403
vt 0.960300 0.198857
vt 0.960300 0.097159
vt 0.985200 0.097159
vt 0.985200 0.198857
vt 0.960300 0.364273
vt 0.985200 0.364273
vt 0.751756 0.232906
vt 0.766725 0.232906
vt 0.751756 0.198857
vt 0.751756 0.097159
vt 0.766725 0.097159
vt 0.766725 0.198857
vt 0.751756 0.213955
vt 0.751756 0.221763
vt 0.736158 0.221763
vt 0.736158 0.213955
vt 0.960300 0.213955
vt 0.985200 0.213955
vt 0.736158 0.198857
vt 0.736158 0.097159
vt 0.766725 0.213955
vt 0.960300 0.080174
vt 0.985200 0.080174
vt 0.960300 0.221763
vt 0.985200 0.221763
vt 0.512112 0.080174
vt 0.901731 0.097159
vt 0.901731 0.080174
vt 0.901731 0.232906
vt 0.901731 0.221763
vt 0.751756 0.080174
vt 0.766725 0.080174
vt 0.766725 0.221763
vt 0.736158 0.080174
vt 0.901731 0.213955
vt 0.987702 0.080174
vt 0.987702 0.097159
vt 0.312995 0.287260
vt 0.312995 0.266756
vt 0.256800 0.447037
vt 0.262182 0.447037
vt 0.247313 0.427105
vt 0.256800 0.427105
vt 0.262182 0.427105
vt 0.986879 0.213955
vt 0.986879 0.221763
vt 0.986879 0.232906
vt 0.011526 0.198997
vt 0.011526 0.106210
vt 0.988224 0.097159
vt 0.988224 0.198857
vt 0.988224 0.213955
vt 0.011526 0.212772
vt 0.736162 0.198828
vt 0.736162 0.213929
vt 0.512071 0.213929
vt 0.512071 0.198828
vt 0.241616 0.212589
vt 0.241616 0.198797
vt 0.446281 0.198797
vt 0.446281 0.212589
vt 0.045896 0.566457
vt 0.045896 0.583315
vt 0.040527 0.583315
vt 0.040527 0.566457
vt 0.744024 0.855082
vt 0.229739 0.230062
vt 0.229739 0.335438
vt 0.900170 0.370590
vt 0.900170 0.364083
vt 0.958252 0.364083
vt 0.958252 0.370590
vt 0.749053 0.232906
vt 0.751756 0.370835
vt 0.766725 0.370835
vt 0.960300 0.370835
vt 0.985200 0.370835
vt 0.524765 0.451086
vt 0.524765 0.590539
vt 0.511493 0.590287
vt 0.511493 0.451086
vt 0.330121 0.590527
vt 0.330121 0.609721
vt 0.318214 0.609987
vt 0.318214 0.590790
vt 0.524765 0.609620
vt 0.511493 0.609252
vt 0.483092 0.589684
vt 0.483092 0.610081
vt 0.428066 0.609070
vt 0.428066 0.590380
vt 0.373040 0.610083
vt 0.373040 0.589723
vt 0.511540 0.590439
vt 0.511540 0.609126
vt 0.341858 0.609631
vt 0.341858 0.590414
vt 0.744024 0.811199
vt 0.744024 0.666950
vt 0.538038 0.590790
vt 0.538038 0.609987
vt 0.092551 0.946977
vt 0.973612 0.841369
vt 0.973612 0.832546
vt 0.979779 0.832546
vt 0.979779 0.841369
vt 0.342028 0.409901
vt 0.342028 0.428163
vt 0.973612 0.811247
vt 0.979779 0.811209
vt 0.749053 0.370835
vt 0.729271 0.655923
vt 0.729271 0.811209
vt 0.723798 0.811209
vt 0.723798 0.655923
vt 0.342028 0.286887
vt 0.229739 0.349918
vt 0.973612 0.655923
vt 0.979779 0.655923
vt 0.729271 0.832546
vt 0.723798 0.832546
vt 0.729271 0.841369
vt 0.229739 0.355905
vt 0.723798 0.841369
vt 0.810881 0.487382
vt 0.723703 0.488079
vt 0.722414 0.475733
vt 0.811431 0.475733
vt 0.136344 0.861149
vt 0.099442 0.861960
vt 0.096796 0.819259
vt 0.138373 0.819155
vt 0.140374 0.775808
vt 0.094968 0.776382
vt 0.094343 0.762862
vt 0.140622 0.762175
vt 0.139383 0.903629
vt 0.097823 0.904215
vt 0.141899 0.958579
vt 0.142400 0.969076
vt 0.095723 0.969913
vt 0.095879 0.959320
vt 0.140785 0.751536
vt 0.093854 0.752305
vt 0.140164 0.785354
vt 0.095390 0.785855
vt 0.140476 0.928190
vt 0.096531 0.928757
vt 0.154312 0.349992
vt 0.154312 0.355939
vt 0.095432 0.355939
vt 0.095432 0.349992
vt 0.830720 0.348345
vt 0.830720 0.233809
vt 0.895152 0.233809
vt 0.895152 0.348345
vt 0.365076 0.880305
vt 0.367053 0.837128
vt 0.379260 0.837536
vt 0.377807 0.880719
vt 0.830720 0.200043
vt 0.830720 0.099190
vt 0.895152 0.099190
vt 0.895152 0.200043
vt 0.154312 0.230945
vt 0.154312 0.335610
vt 0.095432 0.335610
vt 0.095432 0.230945
vt 0.241035 0.818528
vt 0.242523 0.823158
vt 0.227624 0.825239
vt 0.227001 0.821332
vt 0.096093 0.947052
vt 0.095809 0.795248
vt 0.139866 0.794812
vt 0.140904 0.937274
vt 0.096279 0.937858
vt 0.596314 0.025945
vt 0.408167 0.025459
vt 0.406987 0.000849
vt 0.595134 0.001335
vt 0.154312 0.200089
vt 0.154312 0.213771
vt 0.095432 0.213771
vt 0.095432 0.200089
vt 0.154312 0.107928
vt 0.095433 0.107928
vt 0.154336 0.219895
vt 0.154336 0.230062
vt 0.095057 0.230062
vt 0.095057 0.219895
vt 0.154336 0.212772
vt 0.095057 0.212772
vt 0.154336 0.090713
vt 0.154336 0.106210
vt 0.095057 0.106210
vt 0.095057 0.090713
vt 0.704860 0.622909
vt 0.719330 0.623546
vt 0.718216 0.634742
vt 0.703551 0.632958
vt 0.830720 0.215015
vt 0.895152 0.215015
vt 0.831698 0.097159
vt 0.831698 0.080174
vt 0.896671 0.080174
vt 0.896671 0.097159
vt 0.831698 0.232906
vt 0.831698 0.221763
vt 0.896671 0.221763
vt 0.896671 0.232906
vt 0.831698 0.213955
vt 0.896671 0.213955
vt 0.000027 0.027654
vt 0.157170 0.028335
vt 0.158080 0.048896
vt 0.000938 0.048215
vt 0.830720 0.370590
vt 0.830720 0.364083
vt 0.895152 0.364083
vt 0.895152 0.370590
vt 0.141326 0.946411
vt 0.158453 0.212772
vt 0.158453 0.219895
vt 0.143203 0.903555
vt 0.141733 0.861232
vt 0.826245 0.200043
vt 0.826245 0.099190
vt 0.143033 0.794929
vt 0.143303 0.785438
vt 0.521541 0.439492
vt 0.514260 0.444493
vt 0.517322 0.444493
vt 0.525173 0.439492
vt 0.143547 0.775876
vt 0.143838 0.762235
vt 0.623592 0.024636
vt 0.622412 0.000027
vt 0.826245 0.370590
vt 0.826245 0.364083
vt 0.213192 0.230945
vt 0.213192 0.335610
vt 0.158401 0.335610
vt 0.158401 0.230945
vt 0.145622 0.968904
vt 0.826245 0.215015
vt 0.144010 0.937129
vt 0.826245 0.348345
vt 0.826245 0.233809
vt 0.158453 0.230062
vt 0.766287 0.348345
vt 0.766287 0.233809
vt 0.250121 0.874550
vt 0.234069 0.874103
vt 0.827186 0.080174
vt 0.827186 0.097159
vt 0.142174 0.819360
vt 0.144055 0.751591
vt 0.651758 0.675863
vt 0.651758 0.711977
vt 0.646857 0.711977
vt 0.646857 0.675863
vt 0.158427 0.107066
vt 0.158427 0.199541
vt 0.154324 0.199541
vt 0.154324 0.107066
vt 0.639442 0.638472
vt 0.639442 0.674587
vt 0.634540 0.674587
vt 0.634540 0.638472
vt 0.158401 0.349992
vt 0.158401 0.355939
vt 0.827186 0.232906
vt 0.827186 0.221763
vt 0.827186 0.213955
vt 0.766287 0.200043
vt 0.766287 0.099190
vt 0.213192 0.107928
vt 0.213192 0.200089
vt 0.158401 0.200089
vt 0.158401 0.107928
vt 0.143622 0.928062
vt 0.824399 0.486619
vt 0.825183 0.476536
vt 0.158453 0.090713
vt 0.158453 0.106210
vt 0.095244 0.107066
vt 0.095244 0.199541
vt 0.090643 0.199541
vt 0.090643 0.107066
vt 0.365032 0.884134
vt 0.377797 0.883969
vt 0.213192 0.213771
vt 0.158401 0.213771
vt 0.341034 0.028322
vt 0.364830 0.027267
vt 0.365742 0.047827
vt 0.341946 0.048883
vt 0.629694 0.675863
vt 0.629694 0.711977
vt 0.624793 0.711977
vt 0.624793 0.675863
vt 0.801987 0.626312
vt 0.803637 0.638412
vt 0.766287 0.215015
vt 0.213192 0.349992
vt 0.213192 0.355939
vt 0.766287 0.370590
vt 0.766287 0.364083
vt 0.646796 0.674587
vt 0.644404 0.711977
vt 0.639502 0.711977
vt 0.641895 0.674587
vt 0.646796 0.638472
vt 0.641895 0.638472
vt 0.637049 0.711977
vt 0.632148 0.711977
vt 0.632087 0.638472
vt 0.627186 0.638472
vt 0.158427 0.213270
vt 0.154324 0.213270
vt 0.654151 0.638472
vt 0.649249 0.638472
vt 0.095244 0.213270
vt 0.090643 0.213270
vt 0.901635 0.364262
vt 0.901635 0.348400
vt 0.960173 0.348400
vt 0.960173 0.364262
vt 0.831638 0.364262
vt 0.831638 0.348400
vt 0.896577 0.348400
vt 0.896577 0.364262
vt 0.827128 0.364262
vt 0.827128 0.348400
vt 0.766698 0.364262
vt 0.766698 0.348400
vt 0.090457 0.335446
vt 0.090457 0.349921
vt 0.037036 0.349921
vt 0.037036 0.335446
vt 0.154335 0.335446
vt 0.154335 0.349921
vt 0.095073 0.349921
vt 0.095073 0.335446
vt 0.158451 0.335446
vt 0.158451 0.349921
vt 0.213598 0.335446
vt 0.213598 0.349921
vt 0.183856 0.027153
vt 0.184768 0.047714
vt 0.521984 0.028095
vt 0.522897 0.048656
vt 0.482990 0.608296
vt 0.482990 0.671224
vt 0.482990 0.451321
vt 0.482990 0.588162
vt 0.428672 0.588848
vt 0.428672 0.451321
vt 0.374354 0.588199
vt 0.374354 0.451321
vt 0.511071 0.607353
vt 0.511071 0.638247
vt 0.511071 0.451321
vt 0.511071 0.588907
vt 0.343574 0.640056
vt 0.343574 0.607851
vt 0.343574 0.588882
vt 0.343574 0.451321
vt 0.011526 0.335438
vt 0.011526 0.230062
vt 0.988224 0.232906
vt 0.988224 0.348403
vt 0.988224 0.364273
vt 0.988224 0.370835
vt 0.330121 0.629981
vt 0.318214 0.617924
vt 0.330121 0.451086
vt 0.318214 0.451086
vt 0.542961 0.590790
vt 0.542961 0.609987
vt 0.524765 0.629066
vt 0.511493 0.640208
vt 0.538038 0.451086
vt 0.542961 0.451086
vt 0.312666 0.590790
vt 0.312666 0.451086
vt 0.312666 0.617924
vt 0.312666 0.609987
vt 0.538038 0.617924
vt 0.542961 0.617924
vt 0.342028 0.451086
vt 0.342028 0.590262
vt 0.342028 0.609454
vt 0.342028 0.642038
s 0
usemtl Material
f 638/89/14 194/89/14 47/89/14 620/89/14
s 1
f 632/90/15 619/91/15 51/92/16 192/93/16
f 617/94/15 50/95/16 103/96/16 627/97/15
s 0
f 54/89/17 72/89/17 83/89/17 78/89/17
s 1
f 639/98/15 272/99/16 67/100/16 622/101/15
s 0
f 164/102/18 167/103/18 705/103/18 702/102/18
f 63/89/14 144/89/14 392/89/14 384/89/14
f 216/89/14 273/89/14 366/89/14 361/89/14
s 1
f 143/104/19 61/105/20 116/106/20 154/107/19
s 0
f 59/108/21 87/109/21 111/110/21 104/111/21
s 1
f 199/112/22 123/113/22 61/105/20 180/114/20
f 189/115/23 49/116/23 84/117/24 171/118/24
s 0
f 198/89/14 179/89/14 63/89/14 122/89/14
f 148/119/25 74/120/25 97/121/25 151/122/25
s 1
f 263/123/22 275/124/20 56/125/20 127/126/22
s 0
f 257/89/14 274/89/14 55/89/14 147/89/14
f 82/127/26 71/128/26 96/129/26 99/130/26
f 79/131/26 60/132/26 105/133/26 109/134/26
f 819/135/20 176/136/20 351/137/20 890/138/20
f 573/139/27 658/140/27 735/140/27 688/139/27
f 203/141/17 210/142/17 359/143/17 357/144/17
f 640/145/28 624/146/28 71/147/28 271/148/28
f 567/149/28 131/150/28 66/151/28 565/152/28
f 331/153/28 130/154/28 74/155/28 268/156/28
f 291/89/14 330/89/14 411/89/14 405/89/14
f 186/157/29 187/158/29 77/159/29 80/160/29
f 296/161/29 295/162/29 82/163/29 81/164/29
f 132/165/30 65/166/30 117/167/30 138/168/30
f 209/169/26 60/132/26 79/131/26 207/170/26
s 1
f 218/171/16 54/172/16 78/173/31 221/174/31
f 127/126/22 56/125/20 92/175/20 133/176/22
f 192/93/16 51/92/16 77/159/31 187/158/31
s 0
f 297/177/26 71/128/26 82/127/26 295/178/26
f 265/179/32 231/180/32 89/181/32 90/182/32
f 185/183/32 184/184/32 88/185/32 85/186/32
s 1
f 67/100/16 81/164/31 98/187/31 93/188/16
f 255/189/23 68/190/23 89/181/24 231/180/24
s 0
f 145/191/33 66/192/33 107/193/33 153/194/33
f 626/195/28 625/196/28 93/188/28 96/197/28
f 134/198/28 133/176/28 92/175/28 97/199/28
f 96/197/28 93/188/28 98/187/28 99/200/28
f 94/201/28 95/202/28 101/203/28 100/204/28
f 90/182/32 89/181/32 100/204/32 101/205/32
f 731/206/34 70/207/34 95/208/34 665/209/34
f 81/164/29 82/163/29 99/210/29 98/187/29
f 70/207/21 90/211/21 101/212/21 95/208/21
s 1
f 622/101/15 67/100/16 93/188/16 625/196/15
f 89/181/24 68/190/23 94/201/23 100/204/24
s 0
f 628/213/28 627/97/28 103/96/28 105/214/28
f 136/215/28 135/216/28 106/217/28 107/218/28
f 105/214/28 103/96/28 108/219/28 109/220/28
f 102/221/28 104/222/28 111/223/28 110/224/28
s 1
f 84/117/24 49/116/23 102/221/23 110/224/24
s 0
f 76/225/29 79/226/29 109/227/29 108/219/29
f 87/228/32 84/117/32 110/224/32 111/229/32
s 1
f 129/230/22 62/231/20 106/217/20 135/216/22
s 0
f 730/232/35 59/108/35 104/111/35 664/233/35
s 1
f 50/95/16 76/225/31 108/219/31 103/96/16
s 0
f 732/234/17 733/235/17 113/236/17 115/237/17
f 155/238/17 154/107/17 116/106/17 117/239/17
f 112/240/17 114/241/17 119/242/17 118/243/17
f 115/237/17 113/236/17 120/244/17 121/245/17
s 1
f 52/246/23 85/186/24 120/244/24 113/236/23
s 0
f 80/160/29 77/159/29 118/243/29 119/247/29
f 85/186/32 88/185/32 121/248/32 120/244/32
s 1
f 77/159/31 51/92/16 112/240/16 118/243/31
f 720/249/36 52/246/23 113/236/23 733/235/36
s 0
f 57/89/20 124/89/20 389/89/20 383/89/20
f 274/89/14 264/89/14 125/89/14 55/89/14
s 1
f 319/250/36 252/251/36 123/113/22 199/112/22
s 0
f 320/89/14 198/89/14 122/89/14 253/89/14
s 1
f 308/252/36 263/123/22 127/126/22 285/253/36
s 0
f 564/254/17 65/255/17 132/256/17 566/257/17
f 574/258/28 305/259/28 131/150/28 567/149/28
f 290/260/28 304/261/28 130/154/28 331/153/28
f 237/262/37 132/165/37 138/168/37 243/263/37
s 1
f 285/253/36 127/126/22 133/176/22 248/264/36
s 0
f 261/265/28 248/264/28 133/176/28 134/198/28
f 74/120/38 130/266/38 134/267/38 97/121/38
f 260/268/28 247/269/28 135/216/28 136/215/28
s 1
f 283/270/36 129/230/22 135/216/22 247/269/36
s 0
f 66/192/39 131/271/39 136/272/39 107/193/39
f 117/239/17 116/106/17 137/273/17 138/274/17
s 1
f 61/105/20 123/113/22 137/273/22 116/106/20
s 0
f 179/89/14 197/89/14 144/89/14 63/89/14
s 1
f 180/114/20 61/105/20 143/104/19 196/275/19
f 62/231/20 140/276/19 152/277/19 106/217/20
s 0
f 65/166/40 149/278/40 155/279/40 117/167/40
s 1
f 275/124/20 262/280/19 146/281/19 56/125/20
f 233/282/41 143/104/19 154/107/19 301/283/41
s 0
f 277/284/42 148/119/42 151/122/42 246/285/42
f 47/89/14 337/89/14 414/89/14 379/89/14
f 239/89/14 257/89/14 147/89/14 276/89/14
f 565/152/28 66/151/28 145/286/28 568/287/28
f 268/156/28 74/155/28 148/288/28 310/289/28
f 258/290/43 145/191/43 153/194/43 302/291/43
f 97/199/28 92/175/28 150/292/28 151/293/28
s 1
f 56/125/20 146/281/19 150/292/19 92/175/20
s 0
f 107/218/28 106/217/28 152/277/28 153/294/28
f 240/295/17 301/283/17 154/107/17 155/238/17
f 125/89/14 294/89/14 486/89/14 470/89/14
f 256/89/20 229/89/20 363/89/20 364/89/20
f 795/89/14 173/89/14 349/89/14 929/89/14
f 337/296/29 346/297/29 417/298/29 414/299/29
f 680/89/44 290/89/44 484/89/44 717/89/44
f 721/89/14 253/89/14 402/89/14 666/89/14
f 163/89/20 158/89/20 396/89/20 398/89/20
f 341/89/14 69/89/14 468/89/14 495/89/14
f 347/300/29 341/301/29 495/302/29 496/303/29
f 313/304/17 322/305/17 373/306/17 371/307/17
f 430/308/32 578/309/32 695/310/32 698/311/32
f 126/312/28 167/103/28 164/102/28 58/313/28
f 286/314/28 321/315/28 167/103/28 126/312/28
f 58/313/28 164/102/28 168/316/28 141/317/28
s 1
f 857/318/20 180/114/20 196/275/19 868/319/19
f 821/320/16 192/93/16 187/158/31 820/321/31
f 856/322/22 199/112/22 180/114/20 857/318/20
f 52/246/23 193/323/23 185/183/24 85/186/24
s 0
f 793/324/32 912/325/32 184/184/32 185/183/32
f 869/326/29 820/321/29 187/158/29 186/157/29
s 1
f 921/327/15 632/90/15 192/93/16 821/320/16
s 0
f 168/316/45 164/102/45 702/102/45 722/316/45
s 1
f 831/328/36 319/250/36 199/112/22 856/322/22
s 0
f 871/89/14 823/89/14 198/89/14 320/89/14
f 823/89/14 806/89/14 179/89/14 198/89/14
f 271/89/20 365/89/20 497/89/20 481/89/20
f 806/89/14 826/89/14 197/89/14 179/89/14
f 925/329/29 832/330/29 181/331/29 570/332/29
f 828/89/14 792/89/14 194/89/14 638/89/14
f 824/333/32 913/334/32 182/335/32 175/336/32
f 807/337/21 178/338/21 184/339/21 912/340/21
f 812/341/32 818/342/32 177/343/32 289/344/32
f 176/136/28 323/345/28 374/346/28 351/137/28
f 175/89/17 569/89/17 940/89/17 938/89/17
f 833/347/29 825/348/29 174/349/29 183/350/29
f 297/89/17 316/89/17 372/89/17 367/89/17
f 667/351/29 719/352/29 737/352/29 736/351/29
s 1
f 129/230/22 205/353/22 206/354/20 62/231/20
s 0
f 59/108/21 213/355/21 208/356/21 87/109/21
f 72/89/28 54/89/28 338/89/28 343/89/28
f 84/117/32 87/228/32 208/357/32 171/118/32
s 1
f 283/270/36 281/358/36 205/353/22 129/230/22
s 0
f 616/89/14 46/89/14 173/89/14 636/89/14
f 64/89/14 139/89/14 191/89/14 212/89/14
f 899/359/26 209/169/26 207/170/26 866/360/26
f 60/89/20 209/89/20 358/89/20 340/89/20
f 128/89/14 64/89/14 212/89/14 190/89/14
s 1
f 810/361/23 189/115/23 171/118/24 794/362/24
s 0
f 284/89/14 128/89/14 190/89/14 282/89/14
s 1
f 50/95/16 172/363/16 170/364/31 76/225/31
s 0
f 47/89/14 194/89/14 355/89/14 337/89/14
f 79/226/29 76/225/29 170/364/29 207/365/29
s 1
f 62/231/20 206/354/20 204/366/19 140/276/19
f 617/94/15 633/367/15 172/363/16 50/95/16
s 0
f 219/89/28 326/89/28 451/89/28 437/89/28
s 1
f 618/368/15 54/172/16 218/171/16 635/369/15
f 126/370/22 58/371/20 214/372/20 226/373/22
s 0
f 139/89/14 64/89/14 215/89/14 228/89/14
f 78/173/29 83/374/29 222/375/29 221/174/29
s 1
f 272/99/16 218/171/16 221/174/31 296/161/31
s 0
f 72/376/26 220/377/26 222/378/26 83/379/26
f 91/380/32 86/381/32 223/382/32 224/383/32
f 298/384/21 219/385/21 224/386/21 265/387/21
s 1
f 53/388/23 217/389/23 223/382/24 86/381/24
s 0
f 64/89/14 128/89/14 225/89/14 215/89/14
s 1
f 286/390/36 126/370/22 226/373/22 279/391/36
f 58/371/20 141/392/19 227/393/19 214/372/20
s 0
f 249/89/14 139/89/14 228/89/14 267/89/14
f 307/89/28 327/89/28 376/89/28 369/89/28
f 228/89/14 215/89/14 274/89/14 257/89/14
s 1
f 279/391/36 226/373/22 263/123/22 308/252/36
s 0
f 221/174/29 222/375/29 295/162/29 296/161/29
f 70/207/21 298/384/21 265/387/21 90/211/21
f 151/293/28 150/292/28 245/394/28 246/395/28
f 224/383/32 223/382/32 231/180/32 265/179/32
s 1
f 67/100/16 272/99/16 296/161/31 81/164/31
s 0
f 621/396/46 258/290/46 302/291/46 628/397/46
f 634/89/14 267/89/14 239/89/14 637/89/14
s 1
f 140/276/19 250/398/41 303/399/41 152/277/19
f 226/373/22 214/372/20 275/124/20 263/123/22
s 0
f 215/89/14 225/89/14 264/89/14 274/89/14
f 46/89/14 216/89/14 361/89/14 336/89/14
f 269/89/14 311/89/14 409/89/14 404/89/14
f 307/400/29 229/401/29 256/402/29 306/403/29
s 1
f 635/369/15 218/171/16 272/99/16 639/98/15
f 217/389/23 255/189/23 231/180/24 223/382/24
s 0
f 276/89/14 147/89/14 471/89/14 482/89/14
f 326/404/32 219/405/32 298/406/32 314/407/32
s 1
f 214/372/20 227/393/19 262/280/19 275/124/20
s 0
f 220/377/26 297/177/26 295/178/26 222/378/26
f 264/89/14 309/89/14 294/89/14 125/89/14
s 1
f 868/319/19 196/275/19 241/408/41 830/409/41
f 140/276/19 204/366/19 300/410/41 250/398/41
f 196/275/19 143/104/19 233/282/41 241/408/41
s 0
f 144/89/14 234/89/14 399/89/14 392/89/14
f 267/89/14 228/89/14 257/89/14 239/89/14
f 826/89/14 906/89/14 242/89/14 197/89/14
f 197/89/14 242/89/14 234/89/14 144/89/14
s 1
f 227/393/19 266/411/41 238/412/41 262/280/19
s 0
f 139/89/14 249/89/14 299/89/14 191/89/14
f 310/289/28 148/288/28 277/413/28 315/414/28
f 253/89/14 122/89/14 388/89/14 402/89/14
s 1
f 262/280/19 238/412/41 259/415/41 146/281/19
s 0
f 624/416/47 277/284/47 246/285/47 626/417/47
f 568/287/28 145/286/28 258/418/28 573/139/28
f 630/419/17 629/420/17 301/283/17 240/295/17
f 637/89/14 239/89/14 276/89/14 623/89/14
f 616/89/14 249/89/14 267/89/14 634/89/14
s 1
f 146/281/19 259/415/41 245/394/41 150/292/19
s 0
f 153/294/28 152/277/28 303/399/28 302/421/28
s 1
f 141/392/19 254/422/41 266/411/41 227/393/19
s 0
f 141/317/28 168/316/28 278/423/28 254/424/28
s 1
f 619/91/15 233/282/41 301/283/41 629/420/15
f 920/425/36 668/426/36 319/250/36 831/328/36
s 0
f 138/274/17 137/273/17 244/427/17 243/428/17
f 620/89/14 47/89/14 379/89/14 642/89/14
f 665/429/28 675/430/28 248/264/28 261/265/28
f 726/431/28 730/432/28 305/259/28 574/258/28
f 220/433/29 327/434/29 316/435/29 297/436/29
s 1
f 676/437/36 283/270/36 247/269/36 674/438/36
s 0
f 664/439/28 674/438/28 247/269/28 260/268/28
f 128/89/14 284/89/14 280/89/14 225/89/14
f 162/440/28 333/441/28 335/442/28 292/443/28
f 229/89/28 307/89/28 369/89/28 363/89/28
f 157/89/48 162/89/48 476/89/48 472/89/48
f 130/266/49 304/444/49 261/445/49 134/267/49
f 442/446/32 441/447/32 500/448/32 501/449/32
s 1
f 123/113/22 252/251/36 244/427/36 137/273/22
f 681/450/36 279/391/36 308/252/36 678/451/36
s 0
f 663/89/14 320/89/14 253/89/14 721/89/14
s 1
f 678/451/36 308/252/36 285/253/36 718/452/36
s 0
f 288/453/17 330/454/17 291/455/17 235/456/17
f 329/89/14 317/89/14 557/89/14 559/89/14
s 1
f 718/452/36 285/253/36 248/264/36 675/430/36
s 0
f 131/271/50 305/457/50 260/458/50 136/272/50
f 677/89/14 284/89/14 282/89/14 662/89/14
f 829/89/14 871/89/14 320/89/14 663/89/14
f 225/89/14 280/89/14 309/89/14 264/89/14
s 1
f 719/459/36 286/390/36 279/391/36 681/450/36
s 0
f 236/89/29 251/89/29 478/89/29 477/89/29
f 680/460/28 731/461/28 304/261/28 290/260/28
s 1
f 668/426/36 720/249/36 252/251/36 319/250/36
s 0
f 163/462/17 334/463/17 287/464/17 158/465/17
f 719/352/28 667/351/28 321/315/28 286/314/28
f 287/464/17 269/466/17 330/454/17 288/453/17
f 162/89/51 292/89/51 485/89/51 476/89/51
s 1
f 676/437/36 679/467/36 281/358/36 283/270/36
s 0
f 640/89/52 271/89/52 481/89/52 648/89/52
f 833/468/20 183/469/20 354/470/20 891/471/20
f 907/472/29 870/473/29 325/474/29 323/475/29
f 334/463/17 311/476/17 269/466/17 287/464/17
f 251/477/28 236/478/28 332/479/28 161/480/28
f 441/89/20 270/89/20 480/89/20 500/89/20
f 75/89/14 427/89/14 499/89/14 469/89/14
f 157/481/28 312/482/28 333/441/28 162/440/28
f 323/345/28 325/483/28 375/484/28 374/346/28
f 307/485/14 306/486/14 560/487/14 561/488/14
f 819/489/29 907/472/29 323/475/29 176/490/29
f 183/469/28 174/491/28 350/492/28 354/470/28
f 158/465/17 287/464/17 288/453/17 160/493/17
f 327/89/28 220/89/28 362/89/28 376/89/28
f 333/89/53 312/89/53 488/89/53 493/89/53
f 161/480/28 332/479/28 312/482/28 157/481/28
f 251/89/54 161/89/54 475/89/54 478/89/54
f 352/494/29 354/495/29 339/496/29 344/497/29
f 364/498/29 366/499/29 341/301/29 347/300/29
f 368/500/29 364/498/29 347/300/29 370/501/29
f 355/502/29 351/503/29 346/297/29 337/296/29
f 850/504/29 891/505/29 354/495/29 352/494/29
f 851/506/29 850/504/29 352/494/29 375/507/29
f 813/508/29 890/509/29 351/503/29 355/502/29
f 338/510/29 348/511/29 357/512/29 359/513/29
f 343/514/29 338/510/29 359/513/29 360/515/29
f 575/516/29 340/517/29 358/518/29 577/519/29
f 378/520/29 343/514/29 360/515/29 371/521/29
f 336/522/29 345/523/29 356/524/29 349/525/29
f 345/523/29 336/522/29 361/526/29 363/527/29
f 377/528/29 345/523/29 363/527/29 369/529/29
f 363/527/29 361/526/29 366/499/29 364/498/29
f 343/514/29 378/520/29 376/530/29 362/531/29
f 372/532/29 368/500/29 370/501/29 365/533/29
f 367/534/29 372/532/29 365/533/29 342/535/29
f 345/523/29 377/528/29 373/536/29 356/524/29
f 377/528/29 378/520/29 371/521/29 373/536/29
f 378/520/29 377/528/29 369/529/29 376/530/29
f 268/89/55 310/89/55 487/89/55 479/89/55
f 273/89/14 69/89/14 341/89/14 366/89/14
f 570/89/28 181/89/28 353/89/28 576/89/28
f 173/89/14 46/89/14 336/89/14 349/89/14
f 71/89/20 297/89/20 367/89/20 342/89/20
f 322/305/17 202/537/17 356/538/17 373/306/17
f 839/539/14 313/304/14 371/307/14 842/540/14
f 306/541/17 256/542/17 364/543/17 368/544/17
f 572/89/17 203/89/17 357/89/17 577/89/17
f 271/148/28 71/147/28 342/545/28 365/546/28
f 316/89/17 306/89/17 368/89/17 372/89/17
f 220/89/20 72/89/20 343/89/20 362/89/20
f 330/89/14 269/89/14 404/89/14 411/89/14
f 672/547/17 673/548/17 382/549/17 386/550/17
f 393/551/17 391/552/17 383/553/17 387/554/17
f 670/555/17 672/547/17 386/550/17 412/556/17
f 409/557/17 393/551/17 387/554/17 404/558/17
f 387/554/17 383/553/17 389/559/17 390/560/17
f 404/558/17 387/554/17 390/560/17 411/561/17
f 408/562/17 403/563/17 391/552/17 393/551/17
f 410/564/17 408/562/17 393/551/17 409/557/17
f 666/565/17 671/566/17 395/567/17 380/568/17
f 392/569/17 398/570/17 396/571/17 384/572/17
f 384/572/17 396/571/17 397/573/17 388/574/17
f 399/575/17 406/576/17 398/570/17 392/569/17
f 645/577/17 643/578/17 408/562/17 410/564/17
f 642/579/17 644/580/17 406/576/17 399/575/17
f 411/561/17 390/560/17 400/581/17 405/582/17
f 643/578/17 641/583/17 403/563/17 408/562/17
f 385/584/17 413/585/17 418/586/17 416/587/17
f 390/560/17 389/559/17 407/588/17 400/581/17
f 388/574/17 397/573/17 401/589/17 402/590/17
f 381/591/17 385/584/17 416/587/17 415/592/17
f 394/593/17 379/594/17 414/595/17 417/596/17
f 158/89/20 160/89/20 397/89/20 396/89/20
f 293/89/20 163/89/20 398/89/20 406/89/20
f 344/497/29 339/496/29 415/597/29 416/598/29
f 122/89/14 63/89/14 384/89/14 388/89/14
f 142/89/20 57/89/20 383/89/20 391/89/20
f 329/89/17 314/89/17 447/89/17 453/89/17
f 324/89/28 289/89/28 443/89/28 450/89/28
f 70/599/28 270/600/28 441/601/28 425/602/28
f 201/89/17 328/89/17 452/89/17 434/89/17
f 571/89/17 213/89/17 436/89/17 580/89/17
f 447/603/32 444/604/32 425/605/32 441/447/32
f 578/309/32 430/308/32 433/606/32 580/607/32
f 453/608/32 447/603/32 441/447/32 442/446/32
f 440/609/32 453/608/32 442/446/32 429/610/32
f 569/89/28 175/89/28 431/89/28 579/89/28
f 326/89/28 317/89/28 448/89/28 451/89/28
f 332/89/56 236/89/56 477/89/56 492/89/56
f 211/89/17 200/89/17 433/89/17 435/89/17
f 317/89/28 230/89/28 438/89/28 448/89/28
f 213/89/20 59/89/20 424/89/20 436/89/20
f 298/89/20 70/89/20 425/89/20 444/89/20
f 314/89/17 298/89/17 444/89/17 447/89/17
f 646/611/28 647/612/28 474/613/28 468/614/28
f 470/615/28 475/616/28 472/617/28 467/618/28
f 486/619/28 478/620/28 475/616/28 470/615/28
f 467/618/28 472/617/28 476/621/28 471/622/28
f 468/614/28 474/613/28 496/623/28 495/624/28
f 471/622/28 476/621/28 485/625/28 482/626/28
f 477/627/28 484/628/28 491/629/28 492/630/28
f 715/631/28 716/632/28 477/627/28 478/620/28
f 493/633/28 487/634/28 490/635/28 494/636/28
f 492/630/28 491/629/28 479/637/28 488/638/28
f 649/639/28 648/640/28 481/641/28 489/642/28
f 489/642/28 481/641/28 497/643/28 498/644/28
f 716/632/28 717/645/28 484/628/28 477/627/28
f 488/638/28 479/637/28 487/634/28 493/633/28
f 647/612/28 649/639/28 489/642/28 474/613/28
f 474/613/28 489/642/28 498/644/28 496/623/28
f 480/646/28 483/647/28 501/648/28 500/649/28
f 623/89/14 276/89/14 482/89/14 646/89/14
f 365/533/29 370/501/29 498/650/29 497/651/29
f 147/89/14 55/89/14 467/89/14 471/89/14
f 312/89/57 332/89/57 492/89/57 488/89/57
f 290/89/58 331/89/58 491/89/58 484/89/58
f 335/89/59 333/89/59 493/89/59 494/89/59
f 161/89/60 157/89/60 472/89/60 475/89/60
f 292/89/32 335/89/32 494/89/32 485/89/32
f 310/89/61 315/89/61 490/89/61 487/89/61
f 55/89/14 125/89/14 470/89/14 467/89/14
f 331/89/62 268/89/62 479/89/62 491/89/62
f 370/501/29 347/300/29 496/303/29 498/650/29
f 507/652/17 506/653/17 509/654/17 510/655/17
f 508/656/17 507/652/17 510/655/17 511/657/17
f 504/89/29 503/89/29 507/89/29 508/89/29
f 706/658/17 707/659/17 546/660/17 545/661/17
f 654/662/17 653/663/17 542/664/17 543/665/17
f 652/666/17 654/662/17 543/665/17 541/667/17
f 708/668/17 706/658/17 545/661/17 533/669/17
f 544/670/17 532/671/17 549/672/17 550/673/17
f 547/674/17 544/670/17 550/673/17 551/675/17
f 533/669/17 545/661/17 554/676/17 553/677/17
f 545/661/17 546/660/17 555/678/17 554/676/17
f 650/89/63 526/89/63 538/89/63 651/89/63
f 582/679/29 528/680/29 548/681/29 586/682/29
f 650/683/64 515/684/64 114/685/64 630/686/64
f 669/89/14 232/89/14 75/89/14 712/89/14
f 728/89/14 291/89/14 405/89/14 670/89/14
f 124/89/20 527/89/20 407/89/20 389/89/20
f 178/338/21 165/687/21 88/688/21 184/339/21
f 328/89/17 421/89/17 446/89/17 452/89/17
f 73/89/17 53/89/17 86/89/17 91/89/17
f 219/385/21 73/689/21 91/690/21 224/386/21
f 88/688/21 165/687/21 115/691/21 121/692/21
f 515/684/26 80/693/26 119/694/26 114/685/26
f 318/89/32 503/89/32 386/89/32 382/89/32
f 530/695/29 344/497/29 416/598/29 418/696/29
f 712/89/14 75/89/14 469/89/14 727/89/14
f 339/89/20 514/89/20 381/89/20 415/89/20
f 156/89/14 201/89/14 434/89/14 454/89/14
f 515/684/26 181/697/26 186/698/26 80/693/26
f 181/89/20 515/89/20 528/89/20 353/89/20
f 504/89/20 324/89/20 450/89/20 463/89/20
f 677/89/14 45/89/14 419/89/14 729/89/14
f 395/89/20 513/89/20 518/89/20 466/89/20
f 729/89/14 419/89/14 232/89/14 669/89/14
f 657/89/14 516/89/14 413/89/14 645/89/14
f 149/278/65 526/699/65 240/700/65 155/279/65
f 232/89/14 419/89/14 461/89/14 462/89/14
f 54/89/66 618/89/66 696/89/66 740/89/66
f 160/493/17 288/453/17 235/456/17 520/701/17
f 523/702/17 522/703/17 311/476/17 334/463/17
f 710/89/20 513/89/20 395/89/20 671/89/20
f 521/89/20 142/89/20 391/89/20 403/89/20
f 711/704/67 237/262/67 243/263/67 732/705/67
f 75/89/14 232/89/14 462/89/14 427/89/14
f 420/89/20 159/89/20 429/89/20 440/89/20
f 230/706/32 317/707/32 329/708/32 420/709/32
f 429/89/20 159/89/20 473/89/20 502/89/20
f 293/710/17 523/702/17 334/463/17 163/462/17
f 73/89/28 422/89/28 464/89/28 426/89/28
f 427/711/32 429/610/32 502/712/32 499/713/32
f 796/714/32 812/341/32 289/344/32 324/715/32
f 576/716/29 353/717/29 528/680/29 582/679/29
f 375/507/29 352/494/29 344/497/29 530/695/29
f 354/495/29 350/718/29 529/719/29 339/496/29
f 351/503/29 374/720/29 524/721/29 346/297/29
f 374/720/29 375/507/29 530/695/29 524/721/29
f 503/89/32 504/89/32 412/89/32 386/89/32
f 346/89/20 512/89/20 394/89/20 417/89/20
f 311/89/14 522/89/14 410/89/14 409/89/14
f 516/89/14 530/89/14 418/89/14 413/89/14
f 713/89/20 318/89/20 382/89/20 673/89/20
f 655/89/20 521/89/20 403/89/20 641/89/20
f 160/89/20 520/89/20 401/89/20 397/89/20
f 656/89/20 293/89/20 406/89/20 644/89/20
f 53/89/28 73/89/28 426/89/28 428/89/28
f 182/89/14 318/89/14 423/89/14 457/89/14
f 73/89/20 219/89/20 437/89/20 426/89/20
f 177/89/14 513/89/14 518/89/14 455/89/14
f 431/722/32 457/723/32 423/724/32 525/725/32
f 443/726/32 455/727/32 518/728/32 519/729/32
f 579/730/32 431/722/32 525/725/32 588/731/32
f 430/308/32 428/732/32 435/733/32 433/606/32
f 449/734/32 454/735/32 434/736/32 452/737/32
f 464/738/32 426/739/32 437/740/32 451/741/32
f 450/742/32 443/726/32 519/729/32 463/743/32
f 449/734/32 464/738/32 451/741/32 448/744/32
f 454/735/32 449/734/32 448/744/32 438/745/32
f 464/738/32 449/734/32 452/737/32 446/746/32
f 455/727/32 459/747/32 439/748/32 518/728/32
f 457/723/32 456/749/32 505/750/32 423/724/32
f 462/751/32 440/609/32 429/610/32 427/711/32
f 797/752/32 848/753/32 459/747/32 455/727/32
f 927/754/32 849/755/32 456/749/32 457/723/32
f 454/735/32 445/756/32 458/757/32 434/736/32
f 428/732/32 426/739/32 460/758/32 435/733/32
f 445/756/32 454/735/32 438/745/32 461/759/32
f 461/759/32 438/745/32 440/609/32 462/751/32
f 456/749/32 450/742/32 463/743/32 505/750/32
f 849/755/32 926/760/32 450/742/32 456/749/32
f 426/739/32 464/738/32 446/746/32 460/758/32
f 518/728/32 439/748/32 465/761/32 466/762/32
f 48/89/14 380/89/14 465/89/14 439/89/14
f 175/89/28 182/89/28 457/89/28 431/89/28
f 45/89/14 188/89/14 458/89/14 445/89/14
f 892/89/20 211/89/20 435/89/20 933/89/20
f 156/89/20 230/89/20 438/89/20 454/89/20
f 796/89/14 324/89/14 450/89/14 926/89/14
f 165/89/20 178/89/20 432/89/20 517/89/20
f 380/568/17 395/567/17 466/763/17 465/764/17
f 420/89/17 329/89/17 453/89/17 440/89/17
f 289/89/28 177/89/28 455/89/28 443/89/28
f 195/89/14 48/89/14 439/89/14 459/89/14
f 419/89/14 45/89/14 445/89/14 461/89/14
f 822/89/14 195/89/14 459/89/14 848/89/14
f 841/89/20 201/89/20 434/89/20 919/89/20
f 230/89/20 420/89/20 440/89/20 438/89/20
f 483/647/28 473/765/28 502/766/28 501/648/28
f 727/767/28 715/631/28 478/620/28 486/619/28
f 473/765/28 469/768/28 499/769/28 502/766/28
f 429/610/32 442/446/32 501/449/32 502/712/32
f 318/89/20 423/89/20 509/89/20 506/89/20
f 505/750/32 463/743/32 511/770/32 510/771/32
f 503/89/29 318/89/29 506/89/29 507/89/29
f 423/724/32 505/750/32 510/771/32 509/772/32
f 463/89/14 504/89/14 508/89/14 511/89/14
f 530/89/20 516/89/20 547/89/20 551/89/20
f 346/297/29 524/721/29 550/773/29 549/774/29
f 710/89/14 520/89/14 539/89/14 708/89/14
f 519/729/32 518/728/32 553/775/32 554/776/32
f 523/89/32 293/89/32 541/89/32 543/89/32
f 656/89/14 512/89/14 532/89/14 652/89/14
f 657/89/20 522/89/20 542/89/20 653/89/20
f 463/743/32 519/729/32 554/776/32 555/777/32
f 518/89/14 513/89/14 533/89/14 553/89/14
f 524/721/29 530/695/29 551/778/29 550/773/29
f 235/89/29 291/89/29 540/89/29 536/89/29
f 520/89/29 235/89/29 536/89/29 539/89/29
f 728/89/20 504/89/20 546/89/20 707/89/20
f 522/89/32 523/89/32 543/89/32 542/89/32
f 504/89/20 463/89/20 555/89/20 546/89/20
f 512/89/14 346/89/14 549/89/14 532/89/14
f 557/779/32 558/780/32 556/781/32 559/782/32
f 314/89/28 329/89/28 559/89/28 556/89/28
f 326/89/20 314/89/20 556/89/20 558/89/20
f 317/89/17 326/89/17 558/89/17 557/89/17
f 563/783/29 561/784/29 560/785/29 562/786/29
f 306/787/28 316/788/28 562/789/28 560/790/28
f 327/89/17 307/89/17 561/89/17 563/89/17
f 316/89/20 327/89/20 563/89/20 562/89/20
f 658/140/32 621/791/32 697/791/32 735/140/32
f 424/89/20 59/89/20 739/89/20 692/89/20
f 574/258/68 567/149/68 686/149/68 689/258/68
f 726/431/69 574/258/69 689/258/69 684/431/69
f 348/511/29 338/510/29 725/792/29 691/793/29
f 570/89/17 174/89/17 950/89/17 952/89/17
f 807/794/32 924/795/32 569/796/32 178/797/32
f 428/732/32 430/308/32 698/311/32 693/798/32
f 338/89/14 54/89/14 740/89/14 725/89/14
f 631/89/70 278/89/70 723/89/70 734/89/70
f 348/511/29 575/516/29 577/519/29 357/512/29
f 174/89/28 570/89/28 576/89/28 350/89/28
f 209/89/17 572/89/17 577/89/17 358/89/17
f 200/89/17 571/89/17 580/89/17 433/89/17
f 424/799/32 578/309/32 580/607/32 436/800/32
f 178/89/28 569/89/28 579/89/28 432/89/28
f 350/718/29 576/716/29 582/679/29 529/719/29
f 432/801/32 579/730/32 588/731/32 517/802/32
f 659/803/17 660/804/17 598/805/17 597/806/17
f 683/807/17 682/808/17 606/809/17 595/810/17
f 660/804/17 661/811/17 608/812/17 598/805/17
f 535/813/17 613/814/17 611/815/17 584/816/17
f 584/816/17 611/815/17 612/817/17 583/818/17
f 610/819/17 614/820/17 613/814/17 535/813/17
s 1
f 583/818/17 612/817/17 615/821/17 534/822/17
s 0
f 609/89/32 590/89/32 534/89/32 615/89/32
f 242/89/14 638/89/14 620/89/14 234/89/14
s 1
f 241/408/41 233/282/41 619/91/15 632/90/15
f 250/398/41 617/94/15 627/97/15 303/399/41
f 238/412/41 639/98/15 622/101/15 259/415/41
s 0
f 573/139/28 258/418/28 621/791/28 658/140/28
f 315/414/28 277/413/28 624/146/28 640/145/28
f 246/395/28 245/394/28 625/196/28 626/195/28
s 1
f 259/415/41 622/101/15 625/196/15 245/394/41
s 0
f 302/421/28 303/399/28 627/97/28 628/213/28
f 254/424/28 278/423/28 631/823/28 618/824/28
s 1
f 830/409/41 241/408/41 632/90/15 921/327/15
s 0
f 906/89/14 828/89/14 638/89/14 242/89/14
f 249/89/14 616/89/14 636/89/14 299/89/14
s 1
f 250/398/41 300/410/41 633/367/15 617/94/15
f 254/422/41 618/368/15 635/369/15 266/411/41
s 0
f 60/132/71 621/396/71 628/397/71 105/133/71
f 216/89/14 634/89/14 637/89/14 273/89/14
s 1
f 266/411/41 635/369/15 639/98/15 238/412/41
s 0
f 71/128/72 624/416/72 626/417/72 96/129/72
f 114/241/17 112/240/17 629/420/17 630/419/17
f 273/89/14 637/89/14 623/89/14 69/89/14
f 46/89/14 616/89/14 634/89/14 216/89/14
s 1
f 51/92/16 619/91/15 629/420/15 112/240/16
s 0
f 234/89/14 620/89/14 642/89/14 399/89/14
f 315/89/52 640/89/52 648/89/52 490/89/52
f 413/585/17 385/584/17 643/578/17 645/577/17
f 379/594/17 394/593/17 644/580/17 642/579/17
f 385/584/17 381/591/17 641/583/17 643/578/17
f 482/626/28 485/625/28 647/612/28 646/611/28
f 494/636/28 490/635/28 648/640/28 649/639/28
f 485/625/28 494/636/28 649/639/28 647/612/28
f 69/89/14 623/89/14 646/89/14 468/89/14
f 544/670/17 547/674/17 653/663/17 654/662/17
f 532/671/17 544/670/17 654/662/17 652/666/17
f 526/699/73 650/683/73 630/686/73 240/700/73
f 522/89/14 657/89/14 645/89/14 410/89/14
f 514/89/20 655/89/20 641/89/20 381/89/20
f 512/89/20 656/89/20 644/89/20 394/89/20
f 293/89/14 656/89/14 652/89/14 541/89/14
f 516/89/20 657/89/20 653/89/20 547/89/20
f 53/89/14 428/89/14 693/89/14 741/89/14
f 596/825/17 607/826/17 661/811/17 660/804/17
f 527/89/20 713/89/20 673/89/20 407/89/20
s 1
f 252/251/36 720/249/36 733/235/36 244/427/36
s 0
f 48/89/14 721/89/14 666/89/14 380/89/14
s 1
f 827/827/23 193/323/23 668/426/36 920/425/36
s 0
f 402/590/17 401/589/17 671/566/17 666/565/17
f 305/457/74 730/232/74 664/233/74 260/458/74
f 739/828/28 701/829/28 695/830/28 692/831/28
f 270/89/44 680/89/44 717/89/44 480/89/44
f 504/89/14 728/89/14 670/89/14 412/89/14
f 618/824/32 631/823/32 734/823/32 696/824/32
f 294/89/14 712/89/14 727/89/14 486/89/14
s 1
f 217/389/23 681/450/36 678/451/36 255/189/23
s 0
f 724/315/28 689/258/28 686/149/28 705/103/28
f 536/832/17 540/833/17 707/659/17 706/658/17
f 701/829/28 704/834/28 698/835/28 695/830/28
s 1
f 49/116/23 189/115/23 679/467/36 676/437/36
s 0
f 237/89/75 711/89/75 709/89/75 537/89/75
f 578/309/32 424/799/32 692/836/32 695/310/32
f 321/89/76 667/89/76 736/89/76 724/89/76
f 270/600/28 70/599/28 731/461/28 680/460/28
f 469/768/28 473/765/28 715/631/28 727/767/28
f 740/837/28 703/838/28 691/839/28 725/840/28
f 400/581/17 407/588/17 673/548/17 672/547/17
f 621/89/77 60/89/77 738/89/77 697/89/77
f 280/89/14 729/89/14 669/89/14 309/89/14
f 513/89/14 710/89/14 708/89/14 533/89/14
f 539/841/17 536/832/17 706/658/17 708/668/17
f 575/516/29 348/511/29 691/793/29 694/842/29
f 473/765/28 483/647/28 716/632/28 715/631/28
f 309/89/14 669/89/14 712/89/14 294/89/14
f 483/647/28 480/646/28 717/645/28 716/632/28
f 165/687/78 711/704/78 732/705/78 115/691/78
s 1
f 255/189/23 678/451/36 718/452/36 68/190/23
s 0
f 822/89/14 829/89/14 663/89/14 195/89/14
s 1
f 53/388/23 719/459/36 681/450/36 217/389/23
s 0
f 567/149/79 565/152/79 699/152/79 686/149/79
f 701/829/28 739/828/28 685/432/28 684/431/28
s 1
f 49/116/23 676/437/36 674/438/36 102/221/23
s 0
f 704/834/28 741/843/28 693/844/28 698/835/28
s 1
f 193/323/23 52/246/23 720/249/36 668/426/36
s 0
f 95/202/28 94/201/28 675/430/28 665/429/28
f 304/444/80 731/206/80 665/209/80 261/445/80
f 45/89/14 677/89/14 662/89/14 188/89/14
f 703/838/28 700/845/28 694/846/28 691/839/28
f 735/140/28 697/791/28 738/847/28 700/845/28
f 704/834/28 701/829/28 684/431/28 736/351/28
f 340/517/29 575/516/29 694/842/29 690/848/29
f 104/222/28 102/221/28 674/438/28 664/439/28
f 284/89/14 677/89/14 729/89/14 280/89/14
f 243/428/17 244/427/17 733/235/17 732/234/17
f 565/152/81 568/287/81 687/287/81 699/152/81
f 520/89/20 710/89/20 671/89/20 401/89/20
f 405/582/17 400/581/17 672/547/17 670/555/17
f 722/316/28 687/287/28 688/139/28 723/423/28
f 195/89/14 663/89/14 721/89/14 48/89/14
f 702/102/28 699/152/28 687/287/28 722/316/28
s 1
f 68/190/23 718/452/36 675/430/36 94/201/23
s 0
f 291/89/20 728/89/20 707/89/20 540/89/20
f 723/423/28 688/139/28 735/140/28 734/823/28
f 741/843/28 704/834/28 736/351/28 737/352/28
f 167/89/82 321/89/82 724/89/82 705/89/82
f 696/824/28 734/823/28 703/838/28 740/837/28
f 705/103/28 686/149/28 699/152/28 702/102/28
f 568/287/79 573/139/79 688/139/79 687/287/79
f 734/823/28 735/140/28 700/845/28 703/838/28
f 736/351/28 684/431/28 689/258/28 724/315/28
f 278/89/83 168/89/83 722/89/83 723/89/83
f 60/89/20 340/89/20 690/89/20 738/89/20
f 719/89/84 53/89/84 741/89/84 737/89/84
f 700/845/28 738/847/28 690/849/28 694/846/28
f 730/432/29 726/431/29 684/431/29 685/432/29
f 59/89/85 730/89/85 685/89/85 739/89/85
f 800/850/20 751/851/20 772/852/20 805/853/20
f 792/89/14 742/89/14 771/89/14 813/89/14
s 1
f 836/854/20 755/855/20 756/856/19 835/857/19
f 844/858/16 745/859/16 744/860/31 845/861/31
f 837/862/22 754/863/22 755/855/20 836/854/20
s 0
f 846/864/32 901/865/32 760/866/32 743/867/32
f 834/868/29 845/861/29 744/860/29 757/869/29
s 1
f 853/870/15 784/871/15 745/859/16 844/858/16
f 854/872/36 769/873/36 754/863/22 837/862/22
s 0
f 916/89/14 814/89/14 749/89/14 768/89/14
f 814/89/14 883/89/14 762/89/14 749/89/14
f 883/89/14 817/89/14 746/89/14 762/89/14
f 875/874/29 903/875/29 758/876/29 782/877/29
f 861/89/14 847/89/14 742/89/14 785/89/14
f 799/878/32 900/879/32 761/880/32 752/881/32
f 882/882/21 763/883/21 760/884/21 901/885/21
f 915/886/32 801/887/32 750/888/32 770/889/32
f 905/89/14 799/89/14 944/89/14 947/89/14
f 902/890/29 798/891/29 753/892/29 759/893/29
f 832/894/26 758/895/26 757/896/26 869/897/26
s 1
f 827/827/23 747/898/23 743/867/24 793/324/24
f 835/857/19 756/856/19 765/899/41 855/900/41
s 0
f 817/89/14 881/89/14 764/89/14 746/89/14
s 1
f 852/901/36 786/902/36 769/873/36 854/872/36
s 0
f 860/89/14 916/89/14 768/89/14 787/89/14
f 902/903/20 759/904/20 773/905/20 804/906/20
f 880/907/29 917/908/29 767/909/29 766/910/29
f 800/911/29 880/907/29 766/910/29 751/912/29
f 803/913/29 804/914/29 773/915/29 774/916/29
f 802/917/29 803/913/29 774/916/29 775/918/29
f 914/919/29 805/920/29 772/921/29 771/922/29
f 870/923/14 767/924/14 775/925/14 851/926/14
f 789/927/32 915/886/32 770/889/32 778/928/32
f 788/929/32 791/930/32 776/931/32 779/932/32
f 877/933/32 790/934/32 777/935/32 780/936/32
f 790/934/32 876/937/32 781/938/32 777/935/32
f 913/89/20 761/89/20 780/89/20 927/89/20
f 789/89/14 778/89/14 781/89/14 876/89/14
f 815/89/14 748/89/14 776/89/14 791/89/14
f 818/89/20 750/89/20 779/89/20 797/89/20
f 174/939/14 825/940/14 957/941/14 950/942/14
f 882/943/32 874/944/32 783/945/32 763/946/32
s 1
f 855/900/41 765/899/41 784/871/15 853/870/15
s 0
f 881/89/14 861/89/14 785/89/14 764/89/14
s 1
f 816/947/23 747/898/23 786/902/36 852/901/36
s 0
f 815/89/14 860/89/14 787/89/14 748/89/14
f 842/948/29 843/949/29 803/913/29 802/917/29
s 1
f 865/950/22 837/862/22 836/854/20 864/951/20
s 0
f 896/89/14 838/89/14 916/89/14 860/89/14
f 928/952/32 841/953/32 801/887/32 915/886/32
f 780/936/32 777/935/32 849/755/32 927/754/32
f 752/881/32 761/880/32 913/334/32 824/333/32
s 1
f 300/410/41 937/954/41 935/955/15 633/367/15
s 0
f 743/867/32 760/866/32 912/325/32 793/324/32
s 1
f 745/859/16 821/320/16 820/321/31 744/860/31
s 0
f 787/89/14 768/89/14 871/89/14 829/89/14
f 767/956/14 917/957/14 802/958/14 775/959/14
s 1
f 894/960/16 844/858/16 845/861/31 895/961/31
s 0
f 785/89/14 742/89/14 792/89/14 828/89/14
f 210/142/20 898/962/20 872/963/20 359/143/20
f 779/932/32 776/931/32 848/753/32 797/752/32
f 898/962/20 902/903/20 804/906/20 872/963/20
f 886/964/32 930/965/32 874/944/32 882/943/32
s 1
f 747/898/23 816/947/23 846/864/24 743/867/24
s 0
f 572/89/20 931/89/20 961/89/20 953/89/20
f 194/89/14 792/89/14 813/89/14 355/89/14
f 210/966/29 203/967/29 904/968/29 898/969/29
f 918/89/14 789/89/14 876/89/14 932/89/14
f 859/89/14 815/89/14 791/89/14 863/89/14
f 859/89/14 896/89/14 860/89/14 815/89/14
f 171/118/32 208/357/32 893/970/32 794/362/32
f 918/971/32 928/952/32 915/886/32 789/927/32
f 762/89/14 746/89/14 826/89/14 806/89/14
s 1
f 810/361/23 816/947/23 852/901/36 934/972/36
s 0
f 761/89/20 900/89/20 877/89/20 780/89/20
f 905/973/32 892/974/32 900/879/32 799/878/32
f 778/89/14 796/89/14 926/89/14 781/89/14
f 898/969/29 904/968/29 798/891/29 902/890/29
f 843/949/29 872/975/29 804/914/29 803/913/29
f 200/976/32 211/977/32 892/974/32 905/973/32
s 1
f 189/115/23 810/361/23 934/972/36 679/467/36
s 0
f 824/89/14 175/89/14 938/89/14 945/89/14
f 758/895/26 903/978/26 834/979/26 757/896/26
f 434/736/32 458/757/32 863/980/32 919/981/32
f 177/89/20 818/89/20 797/89/20 455/89/20
s 1
f 867/982/19 835/857/19 855/900/41 937/954/41
s 0
f 181/697/26 832/894/26 869/897/26 186/698/26
f 742/89/14 847/89/14 914/89/14 771/89/14
s 1
f 206/354/20 864/951/20 867/982/19 204/366/19
s 0
f 887/89/14 811/89/14 817/89/14 883/89/14
f 866/983/29 895/961/29 845/861/29 834/868/29
f 770/889/32 750/888/32 818/342/32 812/341/32
f 766/984/28 767/985/28 884/986/28 909/987/28
f 911/988/29 888/989/29 879/990/29 885/991/29
f 870/992/17 907/993/17 923/994/17 878/995/17
f 931/996/29 899/997/29 903/875/29 875/874/29
f 933/998/32 862/999/32 790/934/32 877/933/32
f 862/999/32 932/1000/32 876/937/32 790/934/32
f 328/1001/32 201/1002/32 841/953/32 928/952/32
f 202/1003/29 322/1004/29 808/1005/29 840/1006/29
s 1
f 935/955/15 853/870/15 844/858/16 894/960/16
s 0
f 748/89/14 787/89/14 829/89/14 822/89/14
s 1
f 934/972/36 852/901/36 854/872/36 936/1007/36
s 0
f 774/916/29 773/915/29 891/505/29 850/504/29
f 838/89/14 858/89/14 814/89/14 916/89/14
f 794/362/32 893/970/32 901/865/32 846/864/32
f 460/758/32 446/746/32 932/1000/32 862/999/32
f 840/1008/20 800/850/20 805/853/20 873/1009/20
f 897/89/14 795/89/14 847/89/14 861/89/14
f 929/1010/29 873/1011/29 805/920/29 914/919/29
s 1
f 755/855/20 857/318/20 868/319/19 756/856/19
f 769/873/36 831/328/36 856/322/22 754/863/22
s 0
f 763/946/32 783/945/32 924/795/32 807/794/32
s 1
f 937/954/41 855/900/41 853/870/15 935/955/15
s 0
f 325/483/14 870/923/14 851/926/14 375/484/14
f 569/89/20 924/89/20 948/89/20 940/89/20
f 371/521/29 360/515/29 843/949/29 842/948/29
f 908/1012/29 909/1013/29 923/1014/29 889/1015/29
s 1
f 204/366/19 867/982/19 937/954/41 300/410/41
s 0
f 886/1016/21 882/882/21 901/885/21 893/1017/21
f 764/89/14 785/89/14 828/89/14 906/89/14
s 1
f 936/1007/36 854/872/36 837/862/22 865/950/22
s 0
f 919/981/32 863/980/32 791/930/32 788/929/32
f 750/89/20 801/89/20 788/89/20 779/89/20
f 819/89/14 751/89/14 908/89/14 889/89/14
f 811/89/14 809/89/14 881/89/14 817/89/14
f 763/883/21 807/337/21 912/340/21 760/884/21
f 662/89/14 282/89/14 838/89/14 896/89/14
f 858/89/14 887/89/14 883/89/14 814/89/14
s 1
f 747/898/23 827/827/23 920/425/36 786/902/36
s 0
f 783/89/20 874/89/20 946/89/20 943/89/20
f 809/89/14 897/89/14 861/89/14 881/89/14
s 1
f 864/951/20 836/854/20 835/857/19 867/982/19
s 0
f 801/89/20 841/89/20 919/89/20 788/89/20
f 800/89/14 840/89/14 911/89/14 885/89/14
f 771/922/29 772/921/29 890/509/29 813/508/29
f 748/89/14 822/89/14 848/89/14 776/89/14
f 757/869/29 744/860/29 820/321/29 869/326/29
s 1
f 679/467/36 934/972/36 936/1007/36 281/358/36
s 0
f 182/89/20 913/89/20 927/89/20 457/89/20
f 212/89/14 191/89/14 811/89/14 887/89/14
f 768/89/14 749/89/14 823/89/14 871/89/14
f 322/1004/29 313/1018/29 839/1019/29 808/1005/29
f 759/893/29 753/892/29 825/348/29 833/347/29
f 751/851/20 819/135/20 890/138/20 772/852/20
s 1
f 786/902/36 920/425/36 831/328/36 769/873/36
s 0
f 759/904/20 833/468/20 891/471/20 773/905/20
f 775/918/29 774/916/29 850/504/29 851/506/29
s 1
f 193/323/23 827/827/23 793/324/24 185/183/24
f 784/871/15 921/327/15 821/320/16 745/859/16
f 754/863/22 856/322/22 857/318/20 755/855/20
f 756/856/19 868/319/19 830/409/41 765/899/41
s 0
f 360/515/29 359/513/29 872/975/29 843/949/29
f 875/89/20 782/89/20 955/89/20 958/89/20
f 798/1020/14 904/1021/14 959/1022/14 956/1023/14
s 1
f 765/899/41 830/409/41 921/327/15 784/871/15
s 0
f 782/877/29 758/876/29 832/330/29 925/329/29
f 900/89/20 892/89/20 933/89/20 877/89/20
f 778/928/32 770/889/32 812/341/32 796/714/32
f 777/935/32 781/938/32 926/760/32 849/755/32
f 746/89/14 764/89/14 906/89/14 826/89/14
f 839/89/20 917/89/20 922/89/20 910/89/20
f 749/89/14 762/89/14 806/89/14 823/89/14
s 1
f 633/367/15 935/955/15 894/960/16 172/363/16
s 0
f 636/89/14 173/89/14 795/89/14 897/89/14
f 903/978/26 899/359/26 866/360/26 834/979/26
f 421/89/14 918/89/14 932/89/14 446/89/14
f 207/365/29 170/364/29 895/961/29 866/983/29
f 808/1024/28 839/1025/28 910/1026/28 888/1027/28
s 1
f 816/947/23 810/361/23 794/362/24 846/864/24
f 205/353/22 865/950/22 864/951/20 206/354/20
s 0
f 917/1028/14 839/539/14 842/540/14 802/1029/14
f 421/1030/32 328/1001/32 928/952/32 918/971/32
f 282/89/14 190/89/14 858/89/14 838/89/14
f 572/1031/29 209/1032/29 899/997/29 931/996/29
f 349/525/29 356/524/29 873/1011/29 929/1010/29
f 190/89/14 212/89/14 887/89/14 858/89/14
f 188/89/14 662/89/14 896/89/14 859/89/14
f 213/1033/32 571/1034/32 930/965/32 886/964/32
f 191/89/14 299/89/14 809/89/14 811/89/14
f 435/733/32 460/758/32 862/999/32 933/998/32
f 202/537/20 840/1008/20 873/1009/20 356/538/20
s 1
f 172/363/16 894/960/16 895/961/31 170/364/31
s 0
f 847/89/14 795/89/14 929/89/14 914/89/14
f 213/355/21 886/1016/21 893/1017/21 208/356/21
f 188/89/14 859/89/14 863/89/14 458/89/14
f 299/89/14 636/89/14 897/89/14 809/89/14
s 1
f 281/358/36 936/1007/36 865/950/22 205/353/22
s 0
f 880/1035/17 800/1036/17 885/1037/17 879/1038/17
f 917/1039/17 880/1035/17 879/1038/17 922/1040/17
f 907/993/17 819/1041/17 889/1042/17 923/994/17
f 840/1043/28 808/1024/28 888/1027/28 911/1044/28
f 888/989/29 910/1045/29 922/1046/29 879/990/29
f 767/89/20 870/89/20 878/89/20 884/89/20
f 751/1047/28 766/984/28 909/987/28 908/1048/28
f 909/1013/29 884/1049/29 878/1050/29 923/1014/29
f 948/1051/32 945/1052/32 938/1053/32 940/1054/32
f 946/1055/32 944/1056/32 942/1057/32 943/1058/32
f 949/1059/32 947/1060/32 944/1056/32 946/1055/32
f 941/1061/32 939/1062/32 947/1060/32 949/1059/32
f 943/1058/32 942/1057/32 945/1052/32 948/1051/32
f 924/89/20 783/89/20 943/89/20 948/89/20
f 874/89/20 930/89/20 949/89/20 946/89/20
f 752/89/14 824/89/14 945/89/14 942/89/14
f 571/89/28 200/89/28 939/89/28 941/89/28
f 930/89/20 571/89/20 941/89/20 949/89/20
f 799/89/14 752/89/14 942/89/14 944/89/14
f 200/89/14 905/89/14 947/89/14 939/89/14
f 957/1063/29 960/1064/29 952/1065/29 950/1066/29
f 956/1067/29 958/1068/29 955/1069/29 954/1070/29
f 959/1071/29 961/1072/29 958/1068/29 956/1067/29
f 954/1070/29 955/1069/29 960/1064/29 957/1063/29
f 951/1073/29 953/1074/29 961/1072/29 959/1071/29
f 925/89/20 570/89/20 952/89/20 960/89/20
f 825/940/14 753/1075/14 954/1076/14 957/941/14
f 904/1021/14 203/1077/14 951/1078/14 959/1022/14
f 203/89/28 572/89/28 953/89/28 951/89/28
f 782/89/20 925/89/20 960/89/20 955/89/20
f 931/89/20 875/89/20 958/89/20 961/89/20
f 753/1075/14 798/1020/14 956/1023/14 954/1076/14
f 605/1079/17 149/1080/17 65/255/17 564/254/17
f 142/1081/17 169/1082/17 589/1083/17 57/1084/17
f 57/1084/17 589/1083/17 166/1085/17 124/1086/17
f 581/89/32 591/89/32 598/89/32 608/89/32
f 528/89/20 515/89/20 593/89/20 548/89/20
f 581/1087/17 526/1088/17 149/1080/17 605/1079/17
f 521/1089/17 591/1090/17 169/1082/17 142/1081/17
f 566/257/17 132/256/17 237/1091/17 609/1092/17
f 124/1086/17 166/1085/17 590/1093/17 527/1094/17
f 591/89/32 521/89/32 597/89/32 598/89/32
f 609/89/29 237/89/29 537/89/29 585/89/29
f 339/496/29 529/719/29 602/1095/29 601/1096/29
f 713/89/14 527/89/14 599/89/14 714/89/14
f 423/89/14 318/89/14 592/89/14 552/89/14
f 525/725/32 423/724/32 552/1097/32 604/1098/32
f 165/89/20 517/89/20 603/89/20 594/89/20
f 527/89/29 590/89/29 600/89/29 599/89/29
f 514/89/14 339/89/14 601/89/14 531/89/14
f 588/731/32 525/725/32 604/1098/32 587/1099/32
f 711/89/75 165/89/75 594/89/75 709/89/75
f 655/89/14 514/89/14 531/89/14 659/89/14
f 526/89/32 581/89/32 608/89/32 538/89/32
f 529/719/29 582/679/29 586/682/29 602/1095/29
f 590/89/29 609/89/29 585/89/29 600/89/29
f 517/802/32 588/731/32 587/1099/32 603/1100/32
f 682/808/17 709/1101/17 594/1102/17 606/809/17
f 714/1103/17 683/807/17 595/810/17 592/1104/17
f 607/826/17 596/825/17 602/1105/17 586/1106/17
f 661/811/17 651/1107/17 538/1108/17 608/812/17
f 596/825/17 531/1109/17 601/1110/17 602/1105/17
f 592/1104/17 595/810/17 604/1111/17 552/1112/17
f 606/809/17 594/1102/17 603/1113/17 587/1114/17
f 169/89/86 591/89/86 610/89/86 535/89/86
f 589/89/87 169/89/87 535/89/87 584/89/87
f 593/1115/17 607/826/17 586/1106/17 548/1116/17
f 595/810/17 606/809/17 587/1114/17 604/1111/17
f 566/89/88 609/89/88 615/89/88 612/89/88
f 564/89/89 566/89/89 612/89/89 611/89/89
f 166/89/90 589/89/90 584/89/90 583/89/90
f 590/89/91 166/89/91 583/89/91 534/89/91
f 591/89/29 581/89/29 614/89/29 610/89/29
f 605/89/92 564/89/92 611/89/92 613/89/92
f 581/89/93 605/89/93 613/89/93 614/89/93
f 515/89/63 650/89/63 651/89/63 593/89/63
f 521/89/14 655/89/14 659/89/14 597/89/14
f 607/826/17 593/1115/17 651/1107/17 661/811/17
f 531/1109/17 596/825/17 660/804/17 659/803/17
f 599/1117/17 600/1118/17 683/807/17 714/1103/17
f 600/1118/17 585/1119/17 682/808/17 683/807/17
f 318/89/14 713/89/14 714/89/14 592/89/14
f 585/1119/17 537/1120/17 709/1101/17 682/808/17
